<mxfile host="app.diagrams.net" modified="2023-10-19T13:29:41.036Z" agent="Mozilla/5.0 (Windows NT 10.0; Win64; x64) AppleWebKit/537.36 (KHTML, like Gecko) Chrome/118.0.0.0 Safari/537.36" etag="49Y6Q7uHztLd_gnVQE74" version="22.0.5" type="github">
  <diagram id="C5RBs43oDa-KdzZeNtuy" name="Page-1">
    <mxGraphModel dx="4148" dy="2220" grid="1" gridSize="10" guides="1" tooltips="1" connect="1" arrows="1" fold="1" page="1" pageScale="1" pageWidth="10000" pageHeight="10000" background="none" math="0" shadow="0">
      <root>
        <mxCell id="WIyWlLk6GJQsqaUBKTNV-0" />
        <mxCell id="WIyWlLk6GJQsqaUBKTNV-1" parent="WIyWlLk6GJQsqaUBKTNV-0" />
        <mxCell id="C-ua_Iigtk_Ro6W7pgL2-131" style="edgeStyle=orthogonalEdgeStyle;rounded=0;orthogonalLoop=1;jettySize=auto;html=1;exitX=0.5;exitY=0;exitDx=0;exitDy=0;startArrow=classic;startFill=1;endArrow=none;endFill=0;" edge="1" parent="WIyWlLk6GJQsqaUBKTNV-1" source="C-ua_Iigtk_Ro6W7pgL2-65">
          <mxGeometry relative="1" as="geometry">
            <mxPoint x="5260" y="1990" as="targetPoint" />
          </mxGeometry>
        </mxCell>
        <mxCell id="C-ua_Iigtk_Ro6W7pgL2-5" value="AdminItemServlet" style="swimlane;fontStyle=0;childLayout=stackLayout;horizontal=1;startSize=26;fillColor=none;horizontalStack=0;resizeParent=1;resizeParentMax=0;resizeLast=0;collapsible=1;marginBottom=0;whiteSpace=wrap;html=1;" vertex="1" parent="WIyWlLk6GJQsqaUBKTNV-1">
          <mxGeometry x="4200" y="3020" width="390" height="146" as="geometry" />
        </mxCell>
        <mxCell id="C-ua_Iigtk_Ro6W7pgL2-6" value="&lt;p data-pm-slice=&quot;1 1 [&amp;quot;tiptapChildEditor&amp;quot;,{&amp;quot;id&amp;quot;:&amp;quot;dc9b0feb-b4c9-43d0-a729-6b9075bb8845&amp;quot;,&amp;quot;shapeId&amp;quot;:&amp;quot;wDDD5ajjg7d&amp;quot;,&amp;quot;textId&amp;quot;:&amp;quot;functionSectionText&amp;quot;}]&quot;&gt;protected&lt;span style=&quot;color: rgb(217, 232, 247); font-size: 10pt; font-family: noto_regular&quot;&gt; &lt;/span&gt;&lt;span style=&quot;color: rgb(204, 108, 29); font-size: 10pt; font-family: noto_regular&quot;&gt;void&lt;/span&gt;&lt;span style=&quot;color: rgb(217, 232, 247); font-size: 10pt; font-family: noto_regular&quot;&gt; &lt;/span&gt;&lt;span style=&quot;color: rgb(30, 181, 64); font-size: 10pt; font-family: noto_regular&quot;&gt;doGet&lt;/span&gt;&lt;span style=&quot;color: rgb(249, 250, 244); font-size: 10pt; font-family: noto_regular&quot;&gt; &lt;/span&gt;&lt;span style=&quot;font-size: 10pt; font-family: noto_regular;&quot;&gt;(&lt;/span&gt;&lt;span style=&quot;color: rgb(128, 242, 246); font-size: 10pt; font-family: noto_regular&quot;&gt;HttpServletRequest&lt;/span&gt;&lt;span style=&quot;color: rgb(217, 232, 247); font-size: 10pt; font-family: noto_regular&quot;&gt; &lt;/span&gt;&lt;span style=&quot;color: rgb(121, 171, 255); font-size: 10pt; font-family: noto_regular&quot;&gt;request&lt;/span&gt;&lt;span style=&quot;color: rgb(230, 230, 250); font-size: 10pt; font-family: noto_regular&quot;&gt;,&lt;/span&gt;&lt;span style=&quot;color: rgb(217, 232, 247); font-size: 10pt; font-family: noto_regular&quot;&gt; &lt;/span&gt;&lt;span style=&quot;color: rgb(128, 242, 246); font-size: 10pt; font-family: noto_regular&quot;&gt;HttpServletResponse&lt;/span&gt;&lt;span style=&quot;color: rgb(217, 232, 247); font-size: 10pt; font-family: noto_regular&quot;&gt; &lt;/span&gt;&lt;span style=&quot;color: rgb(121, 171, 255); font-size: 10pt; font-family: noto_regular&quot;&gt;response&lt;/span&gt;&lt;span style=&quot;font-size: 10pt; font-family: noto_regular;&quot;&gt;)&lt;/span&gt;&lt;/p&gt;" style="text;strokeColor=none;fillColor=none;align=left;verticalAlign=top;spacingLeft=4;spacingRight=4;overflow=hidden;rotatable=0;points=[[0,0.5],[1,0.5]];portConstraint=eastwest;whiteSpace=wrap;html=1;" vertex="1" parent="C-ua_Iigtk_Ro6W7pgL2-5">
          <mxGeometry y="26" width="390" height="60" as="geometry" />
        </mxCell>
        <mxCell id="C-ua_Iigtk_Ro6W7pgL2-7" value="&lt;p data-pm-slice=&quot;1 1 [&amp;quot;tiptapChildEditor&amp;quot;,{&amp;quot;id&amp;quot;:&amp;quot;dc9b0feb-b4c9-43d0-a729-6b9075bb8845&amp;quot;,&amp;quot;shapeId&amp;quot;:&amp;quot;wDDD5ajjg7d&amp;quot;,&amp;quot;textId&amp;quot;:&amp;quot;functionSectionText&amp;quot;}]&quot;&gt;protected&lt;span style=&quot;color: rgb(217, 232, 247); font-size: 10pt; font-family: noto_regular&quot;&gt; &lt;/span&gt;&lt;span style=&quot;color: rgb(204, 108, 29); font-size: 10pt; font-family: noto_regular&quot;&gt;void&lt;/span&gt;&lt;span style=&quot;color: rgb(217, 232, 247); font-size: 10pt; font-family: noto_regular&quot;&gt; &lt;/span&gt;&lt;span style=&quot;color: rgb(30, 181, 64); font-size: 10pt; font-family: noto_regular&quot;&gt;doPost &lt;/span&gt;&lt;span style=&quot;font-size: 10pt; font-family: noto_regular;&quot;&gt;(&lt;/span&gt;&lt;span style=&quot;color: rgb(128, 242, 246); font-size: 10pt; font-family: noto_regular&quot;&gt;HttpServletRequest&lt;/span&gt;&lt;span style=&quot;color: rgb(217, 232, 247); font-size: 10pt; font-family: noto_regular&quot;&gt; &lt;/span&gt;&lt;span style=&quot;color: rgb(121, 171, 255); font-size: 10pt; font-family: noto_regular&quot;&gt;request&lt;/span&gt;&lt;span style=&quot;color: rgb(230, 230, 250); font-size: 10pt; font-family: noto_regular&quot;&gt;,&lt;/span&gt;&lt;span style=&quot;color: rgb(217, 232, 247); font-size: 10pt; font-family: noto_regular&quot;&gt; &lt;/span&gt;&lt;span style=&quot;color: rgb(128, 242, 246); font-size: 10pt; font-family: noto_regular&quot;&gt;HttpServletResponse&lt;/span&gt;&lt;span style=&quot;color: rgb(217, 232, 247); font-size: 10pt; font-family: noto_regular&quot;&gt; &lt;/span&gt;&lt;span style=&quot;color: rgb(121, 171, 255); font-size: 10pt; font-family: noto_regular&quot;&gt;response&lt;/span&gt;&lt;span style=&quot;font-size: 10pt; font-family: noto_regular;&quot;&gt;)&lt;/span&gt;&lt;/p&gt;" style="text;strokeColor=none;fillColor=none;align=left;verticalAlign=top;spacingLeft=4;spacingRight=4;overflow=hidden;rotatable=0;points=[[0,0.5],[1,0.5]];portConstraint=eastwest;whiteSpace=wrap;html=1;" vertex="1" parent="C-ua_Iigtk_Ro6W7pgL2-5">
          <mxGeometry y="86" width="390" height="60" as="geometry" />
        </mxCell>
        <mxCell id="C-ua_Iigtk_Ro6W7pgL2-9" value="QnAConnectServlet" style="swimlane;fontStyle=0;childLayout=stackLayout;horizontal=1;startSize=26;fillColor=none;horizontalStack=0;resizeParent=1;resizeParentMax=0;resizeLast=0;collapsible=1;marginBottom=0;whiteSpace=wrap;html=1;" vertex="1" parent="WIyWlLk6GJQsqaUBKTNV-1">
          <mxGeometry x="4210" y="2590" width="390" height="146" as="geometry" />
        </mxCell>
        <mxCell id="C-ua_Iigtk_Ro6W7pgL2-10" value="&lt;p data-pm-slice=&quot;1 1 [&amp;quot;tiptapChildEditor&amp;quot;,{&amp;quot;id&amp;quot;:&amp;quot;dc9b0feb-b4c9-43d0-a729-6b9075bb8845&amp;quot;,&amp;quot;shapeId&amp;quot;:&amp;quot;wDDD5ajjg7d&amp;quot;,&amp;quot;textId&amp;quot;:&amp;quot;functionSectionText&amp;quot;}]&quot;&gt;protected&lt;span style=&quot;color: rgb(217, 232, 247); font-size: 10pt; font-family: noto_regular&quot;&gt; &lt;/span&gt;&lt;span style=&quot;color: rgb(204, 108, 29); font-size: 10pt; font-family: noto_regular&quot;&gt;void&lt;/span&gt;&lt;span style=&quot;color: rgb(217, 232, 247); font-size: 10pt; font-family: noto_regular&quot;&gt; &lt;/span&gt;&lt;span style=&quot;color: rgb(30, 181, 64); font-size: 10pt; font-family: noto_regular&quot;&gt;doGet&lt;/span&gt;&lt;span style=&quot;color: rgb(249, 250, 244); font-size: 10pt; font-family: noto_regular&quot;&gt; &lt;/span&gt;&lt;span style=&quot;font-size: 10pt; font-family: noto_regular;&quot;&gt;(&lt;/span&gt;&lt;span style=&quot;color: rgb(128, 242, 246); font-size: 10pt; font-family: noto_regular&quot;&gt;HttpServletRequest&lt;/span&gt;&lt;span style=&quot;color: rgb(217, 232, 247); font-size: 10pt; font-family: noto_regular&quot;&gt; &lt;/span&gt;&lt;span style=&quot;color: rgb(121, 171, 255); font-size: 10pt; font-family: noto_regular&quot;&gt;request&lt;/span&gt;&lt;span style=&quot;color: rgb(230, 230, 250); font-size: 10pt; font-family: noto_regular&quot;&gt;,&lt;/span&gt;&lt;span style=&quot;color: rgb(217, 232, 247); font-size: 10pt; font-family: noto_regular&quot;&gt; &lt;/span&gt;&lt;span style=&quot;color: rgb(128, 242, 246); font-size: 10pt; font-family: noto_regular&quot;&gt;HttpServletResponse&lt;/span&gt;&lt;span style=&quot;color: rgb(217, 232, 247); font-size: 10pt; font-family: noto_regular&quot;&gt; &lt;/span&gt;&lt;span style=&quot;color: rgb(121, 171, 255); font-size: 10pt; font-family: noto_regular&quot;&gt;response&lt;/span&gt;&lt;span style=&quot;font-size: 10pt; font-family: noto_regular;&quot;&gt;)&lt;/span&gt;&lt;/p&gt;" style="text;strokeColor=none;fillColor=none;align=left;verticalAlign=top;spacingLeft=4;spacingRight=4;overflow=hidden;rotatable=0;points=[[0,0.5],[1,0.5]];portConstraint=eastwest;whiteSpace=wrap;html=1;" vertex="1" parent="C-ua_Iigtk_Ro6W7pgL2-9">
          <mxGeometry y="26" width="390" height="60" as="geometry" />
        </mxCell>
        <mxCell id="C-ua_Iigtk_Ro6W7pgL2-11" value="&lt;p data-pm-slice=&quot;1 1 [&amp;quot;tiptapChildEditor&amp;quot;,{&amp;quot;id&amp;quot;:&amp;quot;dc9b0feb-b4c9-43d0-a729-6b9075bb8845&amp;quot;,&amp;quot;shapeId&amp;quot;:&amp;quot;wDDD5ajjg7d&amp;quot;,&amp;quot;textId&amp;quot;:&amp;quot;functionSectionText&amp;quot;}]&quot;&gt;protected&lt;span style=&quot;color: rgb(217, 232, 247); font-size: 10pt; font-family: noto_regular&quot;&gt; &lt;/span&gt;&lt;span style=&quot;color: rgb(204, 108, 29); font-size: 10pt; font-family: noto_regular&quot;&gt;void&lt;/span&gt;&lt;span style=&quot;color: rgb(217, 232, 247); font-size: 10pt; font-family: noto_regular&quot;&gt; &lt;/span&gt;&lt;span style=&quot;color: rgb(30, 181, 64); font-size: 10pt; font-family: noto_regular&quot;&gt;doPost &lt;/span&gt;&lt;span style=&quot;font-size: 10pt; font-family: noto_regular;&quot;&gt;(&lt;/span&gt;&lt;span style=&quot;color: rgb(128, 242, 246); font-size: 10pt; font-family: noto_regular&quot;&gt;HttpServletRequest&lt;/span&gt;&lt;span style=&quot;color: rgb(217, 232, 247); font-size: 10pt; font-family: noto_regular&quot;&gt; &lt;/span&gt;&lt;span style=&quot;color: rgb(121, 171, 255); font-size: 10pt; font-family: noto_regular&quot;&gt;request&lt;/span&gt;&lt;span style=&quot;color: rgb(230, 230, 250); font-size: 10pt; font-family: noto_regular&quot;&gt;,&lt;/span&gt;&lt;span style=&quot;color: rgb(217, 232, 247); font-size: 10pt; font-family: noto_regular&quot;&gt; &lt;/span&gt;&lt;span style=&quot;color: rgb(128, 242, 246); font-size: 10pt; font-family: noto_regular&quot;&gt;HttpServletResponse&lt;/span&gt;&lt;span style=&quot;color: rgb(217, 232, 247); font-size: 10pt; font-family: noto_regular&quot;&gt; &lt;/span&gt;&lt;span style=&quot;color: rgb(121, 171, 255); font-size: 10pt; font-family: noto_regular&quot;&gt;response&lt;/span&gt;&lt;span style=&quot;font-size: 10pt; font-family: noto_regular;&quot;&gt;)&lt;/span&gt;&lt;/p&gt;" style="text;strokeColor=none;fillColor=none;align=left;verticalAlign=top;spacingLeft=4;spacingRight=4;overflow=hidden;rotatable=0;points=[[0,0.5],[1,0.5]];portConstraint=eastwest;whiteSpace=wrap;html=1;" vertex="1" parent="C-ua_Iigtk_Ro6W7pgL2-9">
          <mxGeometry y="86" width="390" height="60" as="geometry" />
        </mxCell>
        <mxCell id="C-ua_Iigtk_Ro6W7pgL2-12" value="AdminItemUpdateServlet" style="swimlane;fontStyle=0;childLayout=stackLayout;horizontal=1;startSize=26;fillColor=none;horizontalStack=0;resizeParent=1;resizeParentMax=0;resizeLast=0;collapsible=1;marginBottom=0;whiteSpace=wrap;html=1;" vertex="1" parent="WIyWlLk6GJQsqaUBKTNV-1">
          <mxGeometry x="4670" y="3480" width="410" height="146" as="geometry" />
        </mxCell>
        <mxCell id="C-ua_Iigtk_Ro6W7pgL2-13" value="&lt;p data-pm-slice=&quot;1 1 [&amp;quot;tiptapChildEditor&amp;quot;,{&amp;quot;id&amp;quot;:&amp;quot;dc9b0feb-b4c9-43d0-a729-6b9075bb8845&amp;quot;,&amp;quot;shapeId&amp;quot;:&amp;quot;wDDD5ajjg7d&amp;quot;,&amp;quot;textId&amp;quot;:&amp;quot;functionSectionText&amp;quot;}]&quot;&gt;protected&lt;span style=&quot;color: rgb(217, 232, 247); font-size: 10pt; font-family: noto_regular&quot;&gt; &lt;/span&gt;&lt;span style=&quot;color: rgb(204, 108, 29); font-size: 10pt; font-family: noto_regular&quot;&gt;void&lt;/span&gt;&lt;span style=&quot;color: rgb(217, 232, 247); font-size: 10pt; font-family: noto_regular&quot;&gt; &lt;/span&gt;&lt;span style=&quot;color: rgb(30, 181, 64); font-size: 10pt; font-family: noto_regular&quot;&gt;doGet&lt;/span&gt;&lt;span style=&quot;color: rgb(249, 250, 244); font-size: 10pt; font-family: noto_regular&quot;&gt; &lt;/span&gt;&lt;span style=&quot;font-size: 10pt; font-family: noto_regular;&quot;&gt;(&lt;/span&gt;&lt;span style=&quot;color: rgb(128, 242, 246); font-size: 10pt; font-family: noto_regular&quot;&gt;HttpServletRequest&lt;/span&gt;&lt;span style=&quot;color: rgb(217, 232, 247); font-size: 10pt; font-family: noto_regular&quot;&gt; &lt;/span&gt;&lt;span style=&quot;color: rgb(121, 171, 255); font-size: 10pt; font-family: noto_regular&quot;&gt;request&lt;/span&gt;&lt;span style=&quot;color: rgb(230, 230, 250); font-size: 10pt; font-family: noto_regular&quot;&gt;,&lt;/span&gt;&lt;span style=&quot;color: rgb(217, 232, 247); font-size: 10pt; font-family: noto_regular&quot;&gt; &lt;/span&gt;&lt;span style=&quot;color: rgb(128, 242, 246); font-size: 10pt; font-family: noto_regular&quot;&gt;HttpServletResponse&lt;/span&gt;&lt;span style=&quot;color: rgb(217, 232, 247); font-size: 10pt; font-family: noto_regular&quot;&gt; &lt;/span&gt;&lt;span style=&quot;color: rgb(121, 171, 255); font-size: 10pt; font-family: noto_regular&quot;&gt;response&lt;/span&gt;&lt;span style=&quot;font-size: 10pt; font-family: noto_regular;&quot;&gt;)&lt;/span&gt;&lt;/p&gt;" style="text;strokeColor=none;fillColor=none;align=left;verticalAlign=top;spacingLeft=4;spacingRight=4;overflow=hidden;rotatable=0;points=[[0,0.5],[1,0.5]];portConstraint=eastwest;whiteSpace=wrap;html=1;" vertex="1" parent="C-ua_Iigtk_Ro6W7pgL2-12">
          <mxGeometry y="26" width="410" height="60" as="geometry" />
        </mxCell>
        <mxCell id="C-ua_Iigtk_Ro6W7pgL2-14" value="&lt;p data-pm-slice=&quot;1 1 [&amp;quot;tiptapChildEditor&amp;quot;,{&amp;quot;id&amp;quot;:&amp;quot;dc9b0feb-b4c9-43d0-a729-6b9075bb8845&amp;quot;,&amp;quot;shapeId&amp;quot;:&amp;quot;wDDD5ajjg7d&amp;quot;,&amp;quot;textId&amp;quot;:&amp;quot;functionSectionText&amp;quot;}]&quot;&gt;protected&lt;span style=&quot;color: rgb(217, 232, 247); font-size: 10pt; font-family: noto_regular&quot;&gt; &lt;/span&gt;&lt;span style=&quot;color: rgb(204, 108, 29); font-size: 10pt; font-family: noto_regular&quot;&gt;void&lt;/span&gt;&lt;span style=&quot;color: rgb(217, 232, 247); font-size: 10pt; font-family: noto_regular&quot;&gt; &lt;/span&gt;&lt;span style=&quot;color: rgb(30, 181, 64); font-size: 10pt; font-family: noto_regular&quot;&gt;doPost &lt;/span&gt;&lt;span style=&quot;font-size: 10pt; font-family: noto_regular;&quot;&gt;(&lt;/span&gt;&lt;span style=&quot;color: rgb(128, 242, 246); font-size: 10pt; font-family: noto_regular&quot;&gt;HttpServletRequest&lt;/span&gt;&lt;span style=&quot;color: rgb(217, 232, 247); font-size: 10pt; font-family: noto_regular&quot;&gt; &lt;/span&gt;&lt;span style=&quot;color: rgb(121, 171, 255); font-size: 10pt; font-family: noto_regular&quot;&gt;request&lt;/span&gt;&lt;span style=&quot;color: rgb(230, 230, 250); font-size: 10pt; font-family: noto_regular&quot;&gt;,&lt;/span&gt;&lt;span style=&quot;color: rgb(217, 232, 247); font-size: 10pt; font-family: noto_regular&quot;&gt; &lt;/span&gt;&lt;span style=&quot;color: rgb(128, 242, 246); font-size: 10pt; font-family: noto_regular&quot;&gt;HttpServletResponse&lt;/span&gt;&lt;span style=&quot;color: rgb(217, 232, 247); font-size: 10pt; font-family: noto_regular&quot;&gt; &lt;/span&gt;&lt;span style=&quot;color: rgb(121, 171, 255); font-size: 10pt; font-family: noto_regular&quot;&gt;response&lt;/span&gt;&lt;span style=&quot;font-size: 10pt; font-family: noto_regular;&quot;&gt;)&lt;/span&gt;&lt;/p&gt;" style="text;strokeColor=none;fillColor=none;align=left;verticalAlign=top;spacingLeft=4;spacingRight=4;overflow=hidden;rotatable=0;points=[[0,0.5],[1,0.5]];portConstraint=eastwest;whiteSpace=wrap;html=1;" vertex="1" parent="C-ua_Iigtk_Ro6W7pgL2-12">
          <mxGeometry y="86" width="410" height="60" as="geometry" />
        </mxCell>
        <mxCell id="C-ua_Iigtk_Ro6W7pgL2-134" style="edgeStyle=orthogonalEdgeStyle;rounded=0;orthogonalLoop=1;jettySize=auto;html=1;exitX=0.5;exitY=0;exitDx=0;exitDy=0;dashed=1;endArrow=none;endFill=0;" edge="1" parent="WIyWlLk6GJQsqaUBKTNV-1" source="C-ua_Iigtk_Ro6W7pgL2-15" target="C-ua_Iigtk_Ro6W7pgL2-79">
          <mxGeometry relative="1" as="geometry" />
        </mxCell>
        <mxCell id="C-ua_Iigtk_Ro6W7pgL2-15" value="LoginServlet" style="swimlane;fontStyle=0;childLayout=stackLayout;horizontal=1;startSize=26;fillColor=none;horizontalStack=0;resizeParent=1;resizeParentMax=0;resizeLast=0;collapsible=1;marginBottom=0;whiteSpace=wrap;html=1;" vertex="1" parent="WIyWlLk6GJQsqaUBKTNV-1">
          <mxGeometry x="5175" y="2600" width="390" height="146" as="geometry" />
        </mxCell>
        <mxCell id="C-ua_Iigtk_Ro6W7pgL2-16" value="&lt;p data-pm-slice=&quot;1 1 [&amp;quot;tiptapChildEditor&amp;quot;,{&amp;quot;id&amp;quot;:&amp;quot;dc9b0feb-b4c9-43d0-a729-6b9075bb8845&amp;quot;,&amp;quot;shapeId&amp;quot;:&amp;quot;wDDD5ajjg7d&amp;quot;,&amp;quot;textId&amp;quot;:&amp;quot;functionSectionText&amp;quot;}]&quot;&gt;protected&lt;span style=&quot;color: rgb(217, 232, 247); font-size: 10pt; font-family: noto_regular&quot;&gt; &lt;/span&gt;&lt;span style=&quot;color: rgb(204, 108, 29); font-size: 10pt; font-family: noto_regular&quot;&gt;void&lt;/span&gt;&lt;span style=&quot;color: rgb(217, 232, 247); font-size: 10pt; font-family: noto_regular&quot;&gt; &lt;/span&gt;&lt;span style=&quot;color: rgb(30, 181, 64); font-size: 10pt; font-family: noto_regular&quot;&gt;doGet&lt;/span&gt;&lt;span style=&quot;color: rgb(249, 250, 244); font-size: 10pt; font-family: noto_regular&quot;&gt; &lt;/span&gt;&lt;span style=&quot;font-size: 10pt; font-family: noto_regular;&quot;&gt;(&lt;/span&gt;&lt;span style=&quot;color: rgb(128, 242, 246); font-size: 10pt; font-family: noto_regular&quot;&gt;HttpServletRequest&lt;/span&gt;&lt;span style=&quot;color: rgb(217, 232, 247); font-size: 10pt; font-family: noto_regular&quot;&gt; &lt;/span&gt;&lt;span style=&quot;color: rgb(121, 171, 255); font-size: 10pt; font-family: noto_regular&quot;&gt;request&lt;/span&gt;&lt;span style=&quot;color: rgb(230, 230, 250); font-size: 10pt; font-family: noto_regular&quot;&gt;,&lt;/span&gt;&lt;span style=&quot;color: rgb(217, 232, 247); font-size: 10pt; font-family: noto_regular&quot;&gt; &lt;/span&gt;&lt;span style=&quot;color: rgb(128, 242, 246); font-size: 10pt; font-family: noto_regular&quot;&gt;HttpServletResponse&lt;/span&gt;&lt;span style=&quot;color: rgb(217, 232, 247); font-size: 10pt; font-family: noto_regular&quot;&gt; &lt;/span&gt;&lt;span style=&quot;color: rgb(121, 171, 255); font-size: 10pt; font-family: noto_regular&quot;&gt;response&lt;/span&gt;&lt;span style=&quot;font-size: 10pt; font-family: noto_regular;&quot;&gt;)&lt;/span&gt;&lt;/p&gt;" style="text;strokeColor=none;fillColor=none;align=left;verticalAlign=top;spacingLeft=4;spacingRight=4;overflow=hidden;rotatable=0;points=[[0,0.5],[1,0.5]];portConstraint=eastwest;whiteSpace=wrap;html=1;" vertex="1" parent="C-ua_Iigtk_Ro6W7pgL2-15">
          <mxGeometry y="26" width="390" height="60" as="geometry" />
        </mxCell>
        <mxCell id="C-ua_Iigtk_Ro6W7pgL2-17" value="&lt;p data-pm-slice=&quot;1 1 [&amp;quot;tiptapChildEditor&amp;quot;,{&amp;quot;id&amp;quot;:&amp;quot;dc9b0feb-b4c9-43d0-a729-6b9075bb8845&amp;quot;,&amp;quot;shapeId&amp;quot;:&amp;quot;wDDD5ajjg7d&amp;quot;,&amp;quot;textId&amp;quot;:&amp;quot;functionSectionText&amp;quot;}]&quot;&gt;protected&lt;span style=&quot;color: rgb(217, 232, 247); font-size: 10pt; font-family: noto_regular&quot;&gt; &lt;/span&gt;&lt;span style=&quot;color: rgb(204, 108, 29); font-size: 10pt; font-family: noto_regular&quot;&gt;void&lt;/span&gt;&lt;span style=&quot;color: rgb(217, 232, 247); font-size: 10pt; font-family: noto_regular&quot;&gt; &lt;/span&gt;&lt;span style=&quot;color: rgb(30, 181, 64); font-size: 10pt; font-family: noto_regular&quot;&gt;doPost &lt;/span&gt;&lt;span style=&quot;font-size: 10pt; font-family: noto_regular;&quot;&gt;(&lt;/span&gt;&lt;span style=&quot;color: rgb(128, 242, 246); font-size: 10pt; font-family: noto_regular&quot;&gt;HttpServletRequest&lt;/span&gt;&lt;span style=&quot;color: rgb(217, 232, 247); font-size: 10pt; font-family: noto_regular&quot;&gt; &lt;/span&gt;&lt;span style=&quot;color: rgb(121, 171, 255); font-size: 10pt; font-family: noto_regular&quot;&gt;request&lt;/span&gt;&lt;span style=&quot;color: rgb(230, 230, 250); font-size: 10pt; font-family: noto_regular&quot;&gt;,&lt;/span&gt;&lt;span style=&quot;color: rgb(217, 232, 247); font-size: 10pt; font-family: noto_regular&quot;&gt; &lt;/span&gt;&lt;span style=&quot;color: rgb(128, 242, 246); font-size: 10pt; font-family: noto_regular&quot;&gt;HttpServletResponse&lt;/span&gt;&lt;span style=&quot;color: rgb(217, 232, 247); font-size: 10pt; font-family: noto_regular&quot;&gt; &lt;/span&gt;&lt;span style=&quot;color: rgb(121, 171, 255); font-size: 10pt; font-family: noto_regular&quot;&gt;response&lt;/span&gt;&lt;span style=&quot;font-size: 10pt; font-family: noto_regular;&quot;&gt;)&lt;/span&gt;&lt;/p&gt;" style="text;strokeColor=none;fillColor=none;align=left;verticalAlign=top;spacingLeft=4;spacingRight=4;overflow=hidden;rotatable=0;points=[[0,0.5],[1,0.5]];portConstraint=eastwest;whiteSpace=wrap;html=1;" vertex="1" parent="C-ua_Iigtk_Ro6W7pgL2-15">
          <mxGeometry y="86" width="390" height="60" as="geometry" />
        </mxCell>
        <mxCell id="C-ua_Iigtk_Ro6W7pgL2-18" value="LogoutServlet" style="swimlane;fontStyle=0;childLayout=stackLayout;horizontal=1;startSize=26;fillColor=none;horizontalStack=0;resizeParent=1;resizeParentMax=0;resizeLast=0;collapsible=1;marginBottom=0;whiteSpace=wrap;html=1;" vertex="1" parent="WIyWlLk6GJQsqaUBKTNV-1">
          <mxGeometry x="4295" y="1860" width="390" height="146" as="geometry" />
        </mxCell>
        <mxCell id="C-ua_Iigtk_Ro6W7pgL2-19" value="&lt;p data-pm-slice=&quot;1 1 [&amp;quot;tiptapChildEditor&amp;quot;,{&amp;quot;id&amp;quot;:&amp;quot;dc9b0feb-b4c9-43d0-a729-6b9075bb8845&amp;quot;,&amp;quot;shapeId&amp;quot;:&amp;quot;wDDD5ajjg7d&amp;quot;,&amp;quot;textId&amp;quot;:&amp;quot;functionSectionText&amp;quot;}]&quot;&gt;protected&lt;span style=&quot;color: rgb(217, 232, 247); font-size: 10pt; font-family: noto_regular&quot;&gt; &lt;/span&gt;&lt;span style=&quot;color: rgb(204, 108, 29); font-size: 10pt; font-family: noto_regular&quot;&gt;void&lt;/span&gt;&lt;span style=&quot;color: rgb(217, 232, 247); font-size: 10pt; font-family: noto_regular&quot;&gt; &lt;/span&gt;&lt;span style=&quot;color: rgb(30, 181, 64); font-size: 10pt; font-family: noto_regular&quot;&gt;doGet&lt;/span&gt;&lt;span style=&quot;color: rgb(249, 250, 244); font-size: 10pt; font-family: noto_regular&quot;&gt; &lt;/span&gt;&lt;span style=&quot;font-size: 10pt; font-family: noto_regular;&quot;&gt;(&lt;/span&gt;&lt;span style=&quot;color: rgb(128, 242, 246); font-size: 10pt; font-family: noto_regular&quot;&gt;HttpServletRequest&lt;/span&gt;&lt;span style=&quot;color: rgb(217, 232, 247); font-size: 10pt; font-family: noto_regular&quot;&gt; &lt;/span&gt;&lt;span style=&quot;color: rgb(121, 171, 255); font-size: 10pt; font-family: noto_regular&quot;&gt;request&lt;/span&gt;&lt;span style=&quot;color: rgb(230, 230, 250); font-size: 10pt; font-family: noto_regular&quot;&gt;,&lt;/span&gt;&lt;span style=&quot;color: rgb(217, 232, 247); font-size: 10pt; font-family: noto_regular&quot;&gt; &lt;/span&gt;&lt;span style=&quot;color: rgb(128, 242, 246); font-size: 10pt; font-family: noto_regular&quot;&gt;HttpServletResponse&lt;/span&gt;&lt;span style=&quot;color: rgb(217, 232, 247); font-size: 10pt; font-family: noto_regular&quot;&gt; &lt;/span&gt;&lt;span style=&quot;color: rgb(121, 171, 255); font-size: 10pt; font-family: noto_regular&quot;&gt;response&lt;/span&gt;&lt;span style=&quot;font-size: 10pt; font-family: noto_regular;&quot;&gt;)&lt;/span&gt;&lt;/p&gt;" style="text;strokeColor=none;fillColor=none;align=left;verticalAlign=top;spacingLeft=4;spacingRight=4;overflow=hidden;rotatable=0;points=[[0,0.5],[1,0.5]];portConstraint=eastwest;whiteSpace=wrap;html=1;" vertex="1" parent="C-ua_Iigtk_Ro6W7pgL2-18">
          <mxGeometry y="26" width="390" height="60" as="geometry" />
        </mxCell>
        <mxCell id="C-ua_Iigtk_Ro6W7pgL2-20" value="&lt;p data-pm-slice=&quot;1 1 [&amp;quot;tiptapChildEditor&amp;quot;,{&amp;quot;id&amp;quot;:&amp;quot;dc9b0feb-b4c9-43d0-a729-6b9075bb8845&amp;quot;,&amp;quot;shapeId&amp;quot;:&amp;quot;wDDD5ajjg7d&amp;quot;,&amp;quot;textId&amp;quot;:&amp;quot;functionSectionText&amp;quot;}]&quot;&gt;protected&lt;span style=&quot;color: rgb(217, 232, 247); font-size: 10pt; font-family: noto_regular&quot;&gt; &lt;/span&gt;&lt;span style=&quot;color: rgb(204, 108, 29); font-size: 10pt; font-family: noto_regular&quot;&gt;void&lt;/span&gt;&lt;span style=&quot;color: rgb(217, 232, 247); font-size: 10pt; font-family: noto_regular&quot;&gt; &lt;/span&gt;&lt;span style=&quot;color: rgb(30, 181, 64); font-size: 10pt; font-family: noto_regular&quot;&gt;doPost &lt;/span&gt;&lt;span style=&quot;font-size: 10pt; font-family: noto_regular;&quot;&gt;(&lt;/span&gt;&lt;span style=&quot;color: rgb(128, 242, 246); font-size: 10pt; font-family: noto_regular&quot;&gt;HttpServletRequest&lt;/span&gt;&lt;span style=&quot;color: rgb(217, 232, 247); font-size: 10pt; font-family: noto_regular&quot;&gt; &lt;/span&gt;&lt;span style=&quot;color: rgb(121, 171, 255); font-size: 10pt; font-family: noto_regular&quot;&gt;request&lt;/span&gt;&lt;span style=&quot;color: rgb(230, 230, 250); font-size: 10pt; font-family: noto_regular&quot;&gt;,&lt;/span&gt;&lt;span style=&quot;color: rgb(217, 232, 247); font-size: 10pt; font-family: noto_regular&quot;&gt; &lt;/span&gt;&lt;span style=&quot;color: rgb(128, 242, 246); font-size: 10pt; font-family: noto_regular&quot;&gt;HttpServletResponse&lt;/span&gt;&lt;span style=&quot;color: rgb(217, 232, 247); font-size: 10pt; font-family: noto_regular&quot;&gt; &lt;/span&gt;&lt;span style=&quot;color: rgb(121, 171, 255); font-size: 10pt; font-family: noto_regular&quot;&gt;response&lt;/span&gt;&lt;span style=&quot;font-size: 10pt; font-family: noto_regular;&quot;&gt;)&lt;/span&gt;&lt;/p&gt;" style="text;strokeColor=none;fillColor=none;align=left;verticalAlign=top;spacingLeft=4;spacingRight=4;overflow=hidden;rotatable=0;points=[[0,0.5],[1,0.5]];portConstraint=eastwest;whiteSpace=wrap;html=1;" vertex="1" parent="C-ua_Iigtk_Ro6W7pgL2-18">
          <mxGeometry y="86" width="390" height="60" as="geometry" />
        </mxCell>
        <mxCell id="C-ua_Iigtk_Ro6W7pgL2-21" value="JoinServlet" style="swimlane;fontStyle=0;childLayout=stackLayout;horizontal=1;startSize=26;fillColor=none;horizontalStack=0;resizeParent=1;resizeParentMax=0;resizeLast=0;collapsible=1;marginBottom=0;whiteSpace=wrap;html=1;" vertex="1" parent="WIyWlLk6GJQsqaUBKTNV-1">
          <mxGeometry x="5175" y="1840" width="390" height="146" as="geometry" />
        </mxCell>
        <mxCell id="C-ua_Iigtk_Ro6W7pgL2-22" value="&lt;p data-pm-slice=&quot;1 1 [&amp;quot;tiptapChildEditor&amp;quot;,{&amp;quot;id&amp;quot;:&amp;quot;dc9b0feb-b4c9-43d0-a729-6b9075bb8845&amp;quot;,&amp;quot;shapeId&amp;quot;:&amp;quot;wDDD5ajjg7d&amp;quot;,&amp;quot;textId&amp;quot;:&amp;quot;functionSectionText&amp;quot;}]&quot;&gt;protected&lt;span style=&quot;color: rgb(217, 232, 247); font-size: 10pt; font-family: noto_regular&quot;&gt; &lt;/span&gt;&lt;span style=&quot;color: rgb(204, 108, 29); font-size: 10pt; font-family: noto_regular&quot;&gt;void&lt;/span&gt;&lt;span style=&quot;color: rgb(217, 232, 247); font-size: 10pt; font-family: noto_regular&quot;&gt; &lt;/span&gt;&lt;span style=&quot;color: rgb(30, 181, 64); font-size: 10pt; font-family: noto_regular&quot;&gt;doGet&lt;/span&gt;&lt;span style=&quot;color: rgb(249, 250, 244); font-size: 10pt; font-family: noto_regular&quot;&gt; &lt;/span&gt;&lt;span style=&quot;font-size: 10pt; font-family: noto_regular;&quot;&gt;(&lt;/span&gt;&lt;span style=&quot;color: rgb(128, 242, 246); font-size: 10pt; font-family: noto_regular&quot;&gt;HttpServletRequest&lt;/span&gt;&lt;span style=&quot;color: rgb(217, 232, 247); font-size: 10pt; font-family: noto_regular&quot;&gt; &lt;/span&gt;&lt;span style=&quot;color: rgb(121, 171, 255); font-size: 10pt; font-family: noto_regular&quot;&gt;request&lt;/span&gt;&lt;span style=&quot;color: rgb(230, 230, 250); font-size: 10pt; font-family: noto_regular&quot;&gt;,&lt;/span&gt;&lt;span style=&quot;color: rgb(217, 232, 247); font-size: 10pt; font-family: noto_regular&quot;&gt; &lt;/span&gt;&lt;span style=&quot;color: rgb(128, 242, 246); font-size: 10pt; font-family: noto_regular&quot;&gt;HttpServletResponse&lt;/span&gt;&lt;span style=&quot;color: rgb(217, 232, 247); font-size: 10pt; font-family: noto_regular&quot;&gt; &lt;/span&gt;&lt;span style=&quot;color: rgb(121, 171, 255); font-size: 10pt; font-family: noto_regular&quot;&gt;response&lt;/span&gt;&lt;span style=&quot;font-size: 10pt; font-family: noto_regular;&quot;&gt;)&lt;/span&gt;&lt;/p&gt;" style="text;strokeColor=none;fillColor=none;align=left;verticalAlign=top;spacingLeft=4;spacingRight=4;overflow=hidden;rotatable=0;points=[[0,0.5],[1,0.5]];portConstraint=eastwest;whiteSpace=wrap;html=1;" vertex="1" parent="C-ua_Iigtk_Ro6W7pgL2-21">
          <mxGeometry y="26" width="390" height="60" as="geometry" />
        </mxCell>
        <mxCell id="C-ua_Iigtk_Ro6W7pgL2-23" value="&lt;p data-pm-slice=&quot;1 1 [&amp;quot;tiptapChildEditor&amp;quot;,{&amp;quot;id&amp;quot;:&amp;quot;dc9b0feb-b4c9-43d0-a729-6b9075bb8845&amp;quot;,&amp;quot;shapeId&amp;quot;:&amp;quot;wDDD5ajjg7d&amp;quot;,&amp;quot;textId&amp;quot;:&amp;quot;functionSectionText&amp;quot;}]&quot;&gt;protected&lt;span style=&quot;color: rgb(217, 232, 247); font-size: 10pt; font-family: noto_regular&quot;&gt; &lt;/span&gt;&lt;span style=&quot;color: rgb(204, 108, 29); font-size: 10pt; font-family: noto_regular&quot;&gt;void&lt;/span&gt;&lt;span style=&quot;color: rgb(217, 232, 247); font-size: 10pt; font-family: noto_regular&quot;&gt; &lt;/span&gt;&lt;span style=&quot;color: rgb(30, 181, 64); font-size: 10pt; font-family: noto_regular&quot;&gt;doPost &lt;/span&gt;&lt;span style=&quot;font-size: 10pt; font-family: noto_regular;&quot;&gt;(&lt;/span&gt;&lt;span style=&quot;color: rgb(128, 242, 246); font-size: 10pt; font-family: noto_regular&quot;&gt;HttpServletRequest&lt;/span&gt;&lt;span style=&quot;color: rgb(217, 232, 247); font-size: 10pt; font-family: noto_regular&quot;&gt; &lt;/span&gt;&lt;span style=&quot;color: rgb(121, 171, 255); font-size: 10pt; font-family: noto_regular&quot;&gt;request&lt;/span&gt;&lt;span style=&quot;color: rgb(230, 230, 250); font-size: 10pt; font-family: noto_regular&quot;&gt;,&lt;/span&gt;&lt;span style=&quot;color: rgb(217, 232, 247); font-size: 10pt; font-family: noto_regular&quot;&gt; &lt;/span&gt;&lt;span style=&quot;color: rgb(128, 242, 246); font-size: 10pt; font-family: noto_regular&quot;&gt;HttpServletResponse&lt;/span&gt;&lt;span style=&quot;color: rgb(217, 232, 247); font-size: 10pt; font-family: noto_regular&quot;&gt; &lt;/span&gt;&lt;span style=&quot;color: rgb(121, 171, 255); font-size: 10pt; font-family: noto_regular&quot;&gt;response&lt;/span&gt;&lt;span style=&quot;font-size: 10pt; font-family: noto_regular;&quot;&gt;)&lt;/span&gt;&lt;/p&gt;" style="text;strokeColor=none;fillColor=none;align=left;verticalAlign=top;spacingLeft=4;spacingRight=4;overflow=hidden;rotatable=0;points=[[0,0.5],[1,0.5]];portConstraint=eastwest;whiteSpace=wrap;html=1;" vertex="1" parent="C-ua_Iigtk_Ro6W7pgL2-21">
          <mxGeometry y="86" width="390" height="60" as="geometry" />
        </mxCell>
        <mxCell id="C-ua_Iigtk_Ro6W7pgL2-169" style="edgeStyle=orthogonalEdgeStyle;rounded=0;orthogonalLoop=1;jettySize=auto;html=1;exitX=0.25;exitY=0;exitDx=0;exitDy=0;dashed=1;endArrow=none;endFill=0;" edge="1" parent="WIyWlLk6GJQsqaUBKTNV-1" source="C-ua_Iigtk_Ro6W7pgL2-24" target="C-ua_Iigtk_Ro6W7pgL2-149">
          <mxGeometry relative="1" as="geometry" />
        </mxCell>
        <mxCell id="C-ua_Iigtk_Ro6W7pgL2-24" value="&lt;font style=&quot;font-size: 18px;&quot;&gt;QnAWriteServlet&lt;/font&gt;" style="swimlane;fontStyle=0;childLayout=stackLayout;horizontal=1;startSize=40;fillColor=none;horizontalStack=0;resizeParent=1;resizeParentMax=0;resizeLast=0;collapsible=1;marginBottom=0;whiteSpace=wrap;html=1;" vertex="1" parent="WIyWlLk6GJQsqaUBKTNV-1">
          <mxGeometry x="3250" y="2830" width="390" height="170" as="geometry" />
        </mxCell>
        <mxCell id="C-ua_Iigtk_Ro6W7pgL2-25" value="&lt;p data-pm-slice=&quot;1 1 [&amp;quot;tiptapChildEditor&amp;quot;,{&amp;quot;id&amp;quot;:&amp;quot;dc9b0feb-b4c9-43d0-a729-6b9075bb8845&amp;quot;,&amp;quot;shapeId&amp;quot;:&amp;quot;wDDD5ajjg7d&amp;quot;,&amp;quot;textId&amp;quot;:&amp;quot;functionSectionText&amp;quot;}]&quot;&gt;protected&lt;span style=&quot;color: rgb(217, 232, 247); font-size: 10pt; font-family: noto_regular&quot;&gt; &lt;/span&gt;&lt;span style=&quot;color: rgb(204, 108, 29); font-size: 10pt; font-family: noto_regular&quot;&gt;void&lt;/span&gt;&lt;span style=&quot;color: rgb(217, 232, 247); font-size: 10pt; font-family: noto_regular&quot;&gt; &lt;/span&gt;&lt;span style=&quot;color: rgb(30, 181, 64); font-size: 10pt; font-family: noto_regular&quot;&gt;doGet&lt;/span&gt;&lt;span style=&quot;color: rgb(249, 250, 244); font-size: 10pt; font-family: noto_regular&quot;&gt; &lt;/span&gt;&lt;span style=&quot;font-size: 10pt; font-family: noto_regular;&quot;&gt;(&lt;/span&gt;&lt;span style=&quot;color: rgb(128, 242, 246); font-size: 10pt; font-family: noto_regular&quot;&gt;HttpServletRequest&lt;/span&gt;&lt;span style=&quot;color: rgb(217, 232, 247); font-size: 10pt; font-family: noto_regular&quot;&gt; &lt;/span&gt;&lt;span style=&quot;color: rgb(121, 171, 255); font-size: 10pt; font-family: noto_regular&quot;&gt;request&lt;/span&gt;&lt;span style=&quot;color: rgb(230, 230, 250); font-size: 10pt; font-family: noto_regular&quot;&gt;,&lt;/span&gt;&lt;span style=&quot;color: rgb(217, 232, 247); font-size: 10pt; font-family: noto_regular&quot;&gt; &lt;/span&gt;&lt;span style=&quot;color: rgb(128, 242, 246); font-size: 10pt; font-family: noto_regular&quot;&gt;HttpServletResponse&lt;/span&gt;&lt;span style=&quot;color: rgb(217, 232, 247); font-size: 10pt; font-family: noto_regular&quot;&gt; &lt;/span&gt;&lt;span style=&quot;color: rgb(121, 171, 255); font-size: 10pt; font-family: noto_regular&quot;&gt;response&lt;/span&gt;&lt;span style=&quot;font-size: 10pt; font-family: noto_regular;&quot;&gt;)&lt;/span&gt;&lt;/p&gt;" style="text;strokeColor=none;fillColor=none;align=left;verticalAlign=top;spacingLeft=4;spacingRight=4;overflow=hidden;rotatable=0;points=[[0,0.5],[1,0.5]];portConstraint=eastwest;whiteSpace=wrap;html=1;" vertex="1" parent="C-ua_Iigtk_Ro6W7pgL2-24">
          <mxGeometry y="40" width="390" height="60" as="geometry" />
        </mxCell>
        <mxCell id="C-ua_Iigtk_Ro6W7pgL2-26" value="&lt;p data-pm-slice=&quot;1 1 [&amp;quot;tiptapChildEditor&amp;quot;,{&amp;quot;id&amp;quot;:&amp;quot;dc9b0feb-b4c9-43d0-a729-6b9075bb8845&amp;quot;,&amp;quot;shapeId&amp;quot;:&amp;quot;wDDD5ajjg7d&amp;quot;,&amp;quot;textId&amp;quot;:&amp;quot;functionSectionText&amp;quot;}]&quot;&gt;protected&lt;span style=&quot;color: rgb(217, 232, 247); font-size: 10pt; font-family: noto_regular&quot;&gt; &lt;/span&gt;&lt;span style=&quot;color: rgb(204, 108, 29); font-size: 10pt; font-family: noto_regular&quot;&gt;void&lt;/span&gt;&lt;span style=&quot;color: rgb(217, 232, 247); font-size: 10pt; font-family: noto_regular&quot;&gt; &lt;/span&gt;&lt;span style=&quot;color: rgb(30, 181, 64); font-size: 10pt; font-family: noto_regular&quot;&gt;doPost &lt;/span&gt;&lt;span style=&quot;font-size: 10pt; font-family: noto_regular;&quot;&gt;(&lt;/span&gt;&lt;span style=&quot;color: rgb(128, 242, 246); font-size: 10pt; font-family: noto_regular&quot;&gt;HttpServletRequest&lt;/span&gt;&lt;span style=&quot;color: rgb(217, 232, 247); font-size: 10pt; font-family: noto_regular&quot;&gt; &lt;/span&gt;&lt;span style=&quot;color: rgb(121, 171, 255); font-size: 10pt; font-family: noto_regular&quot;&gt;request&lt;/span&gt;&lt;span style=&quot;color: rgb(230, 230, 250); font-size: 10pt; font-family: noto_regular&quot;&gt;,&lt;/span&gt;&lt;span style=&quot;color: rgb(217, 232, 247); font-size: 10pt; font-family: noto_regular&quot;&gt; &lt;/span&gt;&lt;span style=&quot;color: rgb(128, 242, 246); font-size: 10pt; font-family: noto_regular&quot;&gt;HttpServletResponse&lt;/span&gt;&lt;span style=&quot;color: rgb(217, 232, 247); font-size: 10pt; font-family: noto_regular&quot;&gt; &lt;/span&gt;&lt;span style=&quot;color: rgb(121, 171, 255); font-size: 10pt; font-family: noto_regular&quot;&gt;response&lt;/span&gt;&lt;span style=&quot;font-size: 10pt; font-family: noto_regular;&quot;&gt;)&lt;/span&gt;&lt;/p&gt;" style="text;strokeColor=none;fillColor=none;align=left;verticalAlign=top;spacingLeft=4;spacingRight=4;overflow=hidden;rotatable=0;points=[[0,0.5],[1,0.5]];portConstraint=eastwest;whiteSpace=wrap;html=1;" vertex="1" parent="C-ua_Iigtk_Ro6W7pgL2-24">
          <mxGeometry y="100" width="390" height="70" as="geometry" />
        </mxCell>
        <mxCell id="C-ua_Iigtk_Ro6W7pgL2-123" style="edgeStyle=orthogonalEdgeStyle;rounded=0;orthogonalLoop=1;jettySize=auto;html=1;exitX=0.75;exitY=0;exitDx=0;exitDy=0;endArrow=none;endFill=0;dashed=1;" edge="1" parent="WIyWlLk6GJQsqaUBKTNV-1" source="C-ua_Iigtk_Ro6W7pgL2-27" target="C-ua_Iigtk_Ro6W7pgL2-79">
          <mxGeometry relative="1" as="geometry">
            <Array as="points">
              <mxPoint x="5645" y="3020" />
              <mxPoint x="5645" y="2296" />
            </Array>
          </mxGeometry>
        </mxCell>
        <mxCell id="C-ua_Iigtk_Ro6W7pgL2-27" value="AdminUserServlet" style="swimlane;fontStyle=0;childLayout=stackLayout;horizontal=1;startSize=26;fillColor=none;horizontalStack=0;resizeParent=1;resizeParentMax=0;resizeLast=0;collapsible=1;marginBottom=0;whiteSpace=wrap;html=1;" vertex="1" parent="WIyWlLk6GJQsqaUBKTNV-1">
          <mxGeometry x="5320" y="3020" width="389" height="146" as="geometry" />
        </mxCell>
        <mxCell id="C-ua_Iigtk_Ro6W7pgL2-28" value="&lt;p data-pm-slice=&quot;1 1 [&amp;quot;tiptapChildEditor&amp;quot;,{&amp;quot;id&amp;quot;:&amp;quot;dc9b0feb-b4c9-43d0-a729-6b9075bb8845&amp;quot;,&amp;quot;shapeId&amp;quot;:&amp;quot;wDDD5ajjg7d&amp;quot;,&amp;quot;textId&amp;quot;:&amp;quot;functionSectionText&amp;quot;}]&quot;&gt;protected&lt;span style=&quot;color: rgb(217, 232, 247); font-size: 10pt; font-family: noto_regular&quot;&gt; &lt;/span&gt;&lt;span style=&quot;color: rgb(204, 108, 29); font-size: 10pt; font-family: noto_regular&quot;&gt;void&lt;/span&gt;&lt;span style=&quot;color: rgb(217, 232, 247); font-size: 10pt; font-family: noto_regular&quot;&gt; &lt;/span&gt;&lt;span style=&quot;color: rgb(30, 181, 64); font-size: 10pt; font-family: noto_regular&quot;&gt;doGet&lt;/span&gt;&lt;span style=&quot;color: rgb(249, 250, 244); font-size: 10pt; font-family: noto_regular&quot;&gt; &lt;/span&gt;&lt;span style=&quot;font-size: 10pt; font-family: noto_regular;&quot;&gt;(&lt;/span&gt;&lt;span style=&quot;color: rgb(128, 242, 246); font-size: 10pt; font-family: noto_regular&quot;&gt;HttpServletRequest&lt;/span&gt;&lt;span style=&quot;color: rgb(217, 232, 247); font-size: 10pt; font-family: noto_regular&quot;&gt; &lt;/span&gt;&lt;span style=&quot;color: rgb(121, 171, 255); font-size: 10pt; font-family: noto_regular&quot;&gt;request&lt;/span&gt;&lt;span style=&quot;color: rgb(230, 230, 250); font-size: 10pt; font-family: noto_regular&quot;&gt;,&lt;/span&gt;&lt;span style=&quot;color: rgb(217, 232, 247); font-size: 10pt; font-family: noto_regular&quot;&gt; &lt;/span&gt;&lt;span style=&quot;color: rgb(128, 242, 246); font-size: 10pt; font-family: noto_regular&quot;&gt;HttpServletResponse&lt;/span&gt;&lt;span style=&quot;color: rgb(217, 232, 247); font-size: 10pt; font-family: noto_regular&quot;&gt; &lt;/span&gt;&lt;span style=&quot;color: rgb(121, 171, 255); font-size: 10pt; font-family: noto_regular&quot;&gt;response&lt;/span&gt;&lt;span style=&quot;font-size: 10pt; font-family: noto_regular;&quot;&gt;)&lt;/span&gt;&lt;/p&gt;" style="text;strokeColor=none;fillColor=none;align=left;verticalAlign=top;spacingLeft=4;spacingRight=4;overflow=hidden;rotatable=0;points=[[0,0.5],[1,0.5]];portConstraint=eastwest;whiteSpace=wrap;html=1;" vertex="1" parent="C-ua_Iigtk_Ro6W7pgL2-27">
          <mxGeometry y="26" width="389" height="60" as="geometry" />
        </mxCell>
        <mxCell id="C-ua_Iigtk_Ro6W7pgL2-29" value="&lt;p data-pm-slice=&quot;1 1 [&amp;quot;tiptapChildEditor&amp;quot;,{&amp;quot;id&amp;quot;:&amp;quot;dc9b0feb-b4c9-43d0-a729-6b9075bb8845&amp;quot;,&amp;quot;shapeId&amp;quot;:&amp;quot;wDDD5ajjg7d&amp;quot;,&amp;quot;textId&amp;quot;:&amp;quot;functionSectionText&amp;quot;}]&quot;&gt;protected&lt;span style=&quot;color: rgb(217, 232, 247); font-size: 10pt; font-family: noto_regular&quot;&gt; &lt;/span&gt;&lt;span style=&quot;color: rgb(204, 108, 29); font-size: 10pt; font-family: noto_regular&quot;&gt;void&lt;/span&gt;&lt;span style=&quot;color: rgb(217, 232, 247); font-size: 10pt; font-family: noto_regular&quot;&gt; &lt;/span&gt;&lt;span style=&quot;color: rgb(30, 181, 64); font-size: 10pt; font-family: noto_regular&quot;&gt;doPost &lt;/span&gt;&lt;span style=&quot;font-size: 10pt; font-family: noto_regular;&quot;&gt;(&lt;/span&gt;&lt;span style=&quot;color: rgb(128, 242, 246); font-size: 10pt; font-family: noto_regular&quot;&gt;HttpServletRequest&lt;/span&gt;&lt;span style=&quot;color: rgb(217, 232, 247); font-size: 10pt; font-family: noto_regular&quot;&gt; &lt;/span&gt;&lt;span style=&quot;color: rgb(121, 171, 255); font-size: 10pt; font-family: noto_regular&quot;&gt;request&lt;/span&gt;&lt;span style=&quot;color: rgb(230, 230, 250); font-size: 10pt; font-family: noto_regular&quot;&gt;,&lt;/span&gt;&lt;span style=&quot;color: rgb(217, 232, 247); font-size: 10pt; font-family: noto_regular&quot;&gt; &lt;/span&gt;&lt;span style=&quot;color: rgb(128, 242, 246); font-size: 10pt; font-family: noto_regular&quot;&gt;HttpServletResponse&lt;/span&gt;&lt;span style=&quot;color: rgb(217, 232, 247); font-size: 10pt; font-family: noto_regular&quot;&gt; &lt;/span&gt;&lt;span style=&quot;color: rgb(121, 171, 255); font-size: 10pt; font-family: noto_regular&quot;&gt;response&lt;/span&gt;&lt;span style=&quot;font-size: 10pt; font-family: noto_regular;&quot;&gt;)&lt;/span&gt;&lt;/p&gt;" style="text;strokeColor=none;fillColor=none;align=left;verticalAlign=top;spacingLeft=4;spacingRight=4;overflow=hidden;rotatable=0;points=[[0,0.5],[1,0.5]];portConstraint=eastwest;whiteSpace=wrap;html=1;" vertex="1" parent="C-ua_Iigtk_Ro6W7pgL2-27">
          <mxGeometry y="86" width="389" height="60" as="geometry" />
        </mxCell>
        <mxCell id="C-ua_Iigtk_Ro6W7pgL2-30" value="AdminItemDeleteServlet" style="swimlane;fontStyle=0;childLayout=stackLayout;horizontal=1;startSize=26;fillColor=none;horizontalStack=0;resizeParent=1;resizeParentMax=0;resizeLast=0;collapsible=1;marginBottom=0;whiteSpace=wrap;html=1;" vertex="1" parent="WIyWlLk6GJQsqaUBKTNV-1">
          <mxGeometry x="4190" y="3480" width="390" height="146" as="geometry" />
        </mxCell>
        <mxCell id="C-ua_Iigtk_Ro6W7pgL2-31" value="&lt;p data-pm-slice=&quot;1 1 [&amp;quot;tiptapChildEditor&amp;quot;,{&amp;quot;id&amp;quot;:&amp;quot;dc9b0feb-b4c9-43d0-a729-6b9075bb8845&amp;quot;,&amp;quot;shapeId&amp;quot;:&amp;quot;wDDD5ajjg7d&amp;quot;,&amp;quot;textId&amp;quot;:&amp;quot;functionSectionText&amp;quot;}]&quot;&gt;protected&lt;span style=&quot;color: rgb(217, 232, 247); font-size: 10pt; font-family: noto_regular&quot;&gt; &lt;/span&gt;&lt;span style=&quot;color: rgb(204, 108, 29); font-size: 10pt; font-family: noto_regular&quot;&gt;void&lt;/span&gt;&lt;span style=&quot;color: rgb(217, 232, 247); font-size: 10pt; font-family: noto_regular&quot;&gt; &lt;/span&gt;&lt;span style=&quot;color: rgb(30, 181, 64); font-size: 10pt; font-family: noto_regular&quot;&gt;doGet&lt;/span&gt;&lt;span style=&quot;color: rgb(249, 250, 244); font-size: 10pt; font-family: noto_regular&quot;&gt; &lt;/span&gt;&lt;span style=&quot;font-size: 10pt; font-family: noto_regular;&quot;&gt;(&lt;/span&gt;&lt;span style=&quot;color: rgb(128, 242, 246); font-size: 10pt; font-family: noto_regular&quot;&gt;HttpServletRequest&lt;/span&gt;&lt;span style=&quot;color: rgb(217, 232, 247); font-size: 10pt; font-family: noto_regular&quot;&gt; &lt;/span&gt;&lt;span style=&quot;color: rgb(121, 171, 255); font-size: 10pt; font-family: noto_regular&quot;&gt;request&lt;/span&gt;&lt;span style=&quot;color: rgb(230, 230, 250); font-size: 10pt; font-family: noto_regular&quot;&gt;,&lt;/span&gt;&lt;span style=&quot;color: rgb(217, 232, 247); font-size: 10pt; font-family: noto_regular&quot;&gt; &lt;/span&gt;&lt;span style=&quot;color: rgb(128, 242, 246); font-size: 10pt; font-family: noto_regular&quot;&gt;HttpServletResponse&lt;/span&gt;&lt;span style=&quot;color: rgb(217, 232, 247); font-size: 10pt; font-family: noto_regular&quot;&gt; &lt;/span&gt;&lt;span style=&quot;color: rgb(121, 171, 255); font-size: 10pt; font-family: noto_regular&quot;&gt;response&lt;/span&gt;&lt;span style=&quot;font-size: 10pt; font-family: noto_regular;&quot;&gt;)&lt;/span&gt;&lt;/p&gt;" style="text;strokeColor=none;fillColor=none;align=left;verticalAlign=top;spacingLeft=4;spacingRight=4;overflow=hidden;rotatable=0;points=[[0,0.5],[1,0.5]];portConstraint=eastwest;whiteSpace=wrap;html=1;" vertex="1" parent="C-ua_Iigtk_Ro6W7pgL2-30">
          <mxGeometry y="26" width="390" height="60" as="geometry" />
        </mxCell>
        <mxCell id="C-ua_Iigtk_Ro6W7pgL2-32" value="&lt;p data-pm-slice=&quot;1 1 [&amp;quot;tiptapChildEditor&amp;quot;,{&amp;quot;id&amp;quot;:&amp;quot;dc9b0feb-b4c9-43d0-a729-6b9075bb8845&amp;quot;,&amp;quot;shapeId&amp;quot;:&amp;quot;wDDD5ajjg7d&amp;quot;,&amp;quot;textId&amp;quot;:&amp;quot;functionSectionText&amp;quot;}]&quot;&gt;protected&lt;span style=&quot;color: rgb(217, 232, 247); font-size: 10pt; font-family: noto_regular&quot;&gt; &lt;/span&gt;&lt;span style=&quot;color: rgb(204, 108, 29); font-size: 10pt; font-family: noto_regular&quot;&gt;void&lt;/span&gt;&lt;span style=&quot;color: rgb(217, 232, 247); font-size: 10pt; font-family: noto_regular&quot;&gt; &lt;/span&gt;&lt;span style=&quot;color: rgb(30, 181, 64); font-size: 10pt; font-family: noto_regular&quot;&gt;doPost &lt;/span&gt;&lt;span style=&quot;font-size: 10pt; font-family: noto_regular;&quot;&gt;(&lt;/span&gt;&lt;span style=&quot;color: rgb(128, 242, 246); font-size: 10pt; font-family: noto_regular&quot;&gt;HttpServletRequest&lt;/span&gt;&lt;span style=&quot;color: rgb(217, 232, 247); font-size: 10pt; font-family: noto_regular&quot;&gt; &lt;/span&gt;&lt;span style=&quot;color: rgb(121, 171, 255); font-size: 10pt; font-family: noto_regular&quot;&gt;request&lt;/span&gt;&lt;span style=&quot;color: rgb(230, 230, 250); font-size: 10pt; font-family: noto_regular&quot;&gt;,&lt;/span&gt;&lt;span style=&quot;color: rgb(217, 232, 247); font-size: 10pt; font-family: noto_regular&quot;&gt; &lt;/span&gt;&lt;span style=&quot;color: rgb(128, 242, 246); font-size: 10pt; font-family: noto_regular&quot;&gt;HttpServletResponse&lt;/span&gt;&lt;span style=&quot;color: rgb(217, 232, 247); font-size: 10pt; font-family: noto_regular&quot;&gt; &lt;/span&gt;&lt;span style=&quot;color: rgb(121, 171, 255); font-size: 10pt; font-family: noto_regular&quot;&gt;response&lt;/span&gt;&lt;span style=&quot;font-size: 10pt; font-family: noto_regular;&quot;&gt;)&lt;/span&gt;&lt;/p&gt;" style="text;strokeColor=none;fillColor=none;align=left;verticalAlign=top;spacingLeft=4;spacingRight=4;overflow=hidden;rotatable=0;points=[[0,0.5],[1,0.5]];portConstraint=eastwest;whiteSpace=wrap;html=1;" vertex="1" parent="C-ua_Iigtk_Ro6W7pgL2-30">
          <mxGeometry y="86" width="390" height="60" as="geometry" />
        </mxCell>
        <mxCell id="C-ua_Iigtk_Ro6W7pgL2-33" value="AdminItemInsertServlet" style="swimlane;fontStyle=0;childLayout=stackLayout;horizontal=1;startSize=26;fillColor=none;horizontalStack=0;resizeParent=1;resizeParentMax=0;resizeLast=0;collapsible=1;marginBottom=0;whiteSpace=wrap;html=1;" vertex="1" parent="WIyWlLk6GJQsqaUBKTNV-1">
          <mxGeometry x="3630" y="3480" width="390" height="150" as="geometry" />
        </mxCell>
        <mxCell id="C-ua_Iigtk_Ro6W7pgL2-34" value="&lt;p data-pm-slice=&quot;1 1 [&amp;quot;tiptapChildEditor&amp;quot;,{&amp;quot;id&amp;quot;:&amp;quot;dc9b0feb-b4c9-43d0-a729-6b9075bb8845&amp;quot;,&amp;quot;shapeId&amp;quot;:&amp;quot;wDDD5ajjg7d&amp;quot;,&amp;quot;textId&amp;quot;:&amp;quot;functionSectionText&amp;quot;}]&quot;&gt;protected&lt;span style=&quot;color: rgb(217, 232, 247); font-size: 10pt; font-family: noto_regular&quot;&gt; &lt;/span&gt;&lt;span style=&quot;color: rgb(204, 108, 29); font-size: 10pt; font-family: noto_regular&quot;&gt;void&lt;/span&gt;&lt;span style=&quot;color: rgb(217, 232, 247); font-size: 10pt; font-family: noto_regular&quot;&gt; &lt;/span&gt;&lt;span style=&quot;color: rgb(30, 181, 64); font-size: 10pt; font-family: noto_regular&quot;&gt;doGet&lt;/span&gt;&lt;span style=&quot;color: rgb(249, 250, 244); font-size: 10pt; font-family: noto_regular&quot;&gt; &lt;/span&gt;&lt;span style=&quot;font-size: 10pt; font-family: noto_regular;&quot;&gt;(&lt;/span&gt;&lt;span style=&quot;color: rgb(128, 242, 246); font-size: 10pt; font-family: noto_regular&quot;&gt;HttpServletRequest&lt;/span&gt;&lt;span style=&quot;color: rgb(217, 232, 247); font-size: 10pt; font-family: noto_regular&quot;&gt; &lt;/span&gt;&lt;span style=&quot;color: rgb(121, 171, 255); font-size: 10pt; font-family: noto_regular&quot;&gt;request&lt;/span&gt;&lt;span style=&quot;color: rgb(230, 230, 250); font-size: 10pt; font-family: noto_regular&quot;&gt;,&lt;/span&gt;&lt;span style=&quot;color: rgb(217, 232, 247); font-size: 10pt; font-family: noto_regular&quot;&gt; &lt;/span&gt;&lt;span style=&quot;color: rgb(128, 242, 246); font-size: 10pt; font-family: noto_regular&quot;&gt;HttpServletResponse&lt;/span&gt;&lt;span style=&quot;color: rgb(217, 232, 247); font-size: 10pt; font-family: noto_regular&quot;&gt; &lt;/span&gt;&lt;span style=&quot;color: rgb(121, 171, 255); font-size: 10pt; font-family: noto_regular&quot;&gt;response&lt;/span&gt;&lt;span style=&quot;font-size: 10pt; font-family: noto_regular;&quot;&gt;)&lt;/span&gt;&lt;/p&gt;" style="text;strokeColor=none;fillColor=none;align=left;verticalAlign=top;spacingLeft=4;spacingRight=4;overflow=hidden;rotatable=0;points=[[0,0.5],[1,0.5]];portConstraint=eastwest;whiteSpace=wrap;html=1;" vertex="1" parent="C-ua_Iigtk_Ro6W7pgL2-33">
          <mxGeometry y="26" width="390" height="60" as="geometry" />
        </mxCell>
        <mxCell id="C-ua_Iigtk_Ro6W7pgL2-35" value="&lt;p data-pm-slice=&quot;1 1 [&amp;quot;tiptapChildEditor&amp;quot;,{&amp;quot;id&amp;quot;:&amp;quot;dc9b0feb-b4c9-43d0-a729-6b9075bb8845&amp;quot;,&amp;quot;shapeId&amp;quot;:&amp;quot;wDDD5ajjg7d&amp;quot;,&amp;quot;textId&amp;quot;:&amp;quot;functionSectionText&amp;quot;}]&quot;&gt;protected&lt;span style=&quot;color: rgb(217, 232, 247); font-size: 10pt; font-family: noto_regular&quot;&gt; &lt;/span&gt;&lt;span style=&quot;color: rgb(204, 108, 29); font-size: 10pt; font-family: noto_regular&quot;&gt;void&lt;/span&gt;&lt;span style=&quot;color: rgb(217, 232, 247); font-size: 10pt; font-family: noto_regular&quot;&gt; &lt;/span&gt;&lt;span style=&quot;color: rgb(30, 181, 64); font-size: 10pt; font-family: noto_regular&quot;&gt;doPost &lt;/span&gt;&lt;span style=&quot;font-size: 10pt; font-family: noto_regular;&quot;&gt;(&lt;/span&gt;&lt;span style=&quot;color: rgb(128, 242, 246); font-size: 10pt; font-family: noto_regular&quot;&gt;HttpServletRequest&lt;/span&gt;&lt;span style=&quot;color: rgb(217, 232, 247); font-size: 10pt; font-family: noto_regular&quot;&gt; &lt;/span&gt;&lt;span style=&quot;color: rgb(121, 171, 255); font-size: 10pt; font-family: noto_regular&quot;&gt;request&lt;/span&gt;&lt;span style=&quot;color: rgb(230, 230, 250); font-size: 10pt; font-family: noto_regular&quot;&gt;,&lt;/span&gt;&lt;span style=&quot;color: rgb(217, 232, 247); font-size: 10pt; font-family: noto_regular&quot;&gt; &lt;/span&gt;&lt;span style=&quot;color: rgb(128, 242, 246); font-size: 10pt; font-family: noto_regular&quot;&gt;HttpServletResponse&lt;/span&gt;&lt;span style=&quot;color: rgb(217, 232, 247); font-size: 10pt; font-family: noto_regular&quot;&gt; &lt;/span&gt;&lt;span style=&quot;color: rgb(121, 171, 255); font-size: 10pt; font-family: noto_regular&quot;&gt;response&lt;/span&gt;&lt;span style=&quot;font-size: 10pt; font-family: noto_regular;&quot;&gt;)&lt;/span&gt;&lt;/p&gt;" style="text;strokeColor=none;fillColor=none;align=left;verticalAlign=top;spacingLeft=4;spacingRight=4;overflow=hidden;rotatable=0;points=[[0,0.5],[1,0.5]];portConstraint=eastwest;whiteSpace=wrap;html=1;" vertex="1" parent="C-ua_Iigtk_Ro6W7pgL2-33">
          <mxGeometry y="86" width="390" height="64" as="geometry" />
        </mxCell>
        <mxCell id="C-ua_Iigtk_Ro6W7pgL2-126" style="edgeStyle=orthogonalEdgeStyle;rounded=0;orthogonalLoop=1;jettySize=auto;html=1;exitX=1;exitY=1;exitDx=0;exitDy=0;entryX=0;entryY=0.5;entryDx=0;entryDy=0;endArrow=none;endFill=0;" edge="1" parent="WIyWlLk6GJQsqaUBKTNV-1" source="C-ua_Iigtk_Ro6W7pgL2-62" target="C-ua_Iigtk_Ro6W7pgL2-65">
          <mxGeometry relative="1" as="geometry" />
        </mxCell>
        <mxCell id="C-ua_Iigtk_Ro6W7pgL2-127" style="edgeStyle=orthogonalEdgeStyle;rounded=0;orthogonalLoop=1;jettySize=auto;html=1;exitX=1;exitY=0;exitDx=0;exitDy=0;entryX=0;entryY=0.5;entryDx=0;entryDy=0;endArrow=none;endFill=0;" edge="1" parent="WIyWlLk6GJQsqaUBKTNV-1" source="C-ua_Iigtk_Ro6W7pgL2-62" target="C-ua_Iigtk_Ro6W7pgL2-64">
          <mxGeometry relative="1" as="geometry" />
        </mxCell>
        <mxCell id="C-ua_Iigtk_Ro6W7pgL2-135" style="edgeStyle=orthogonalEdgeStyle;rounded=0;orthogonalLoop=1;jettySize=auto;html=1;exitX=0.5;exitY=1;exitDx=0;exitDy=0;" edge="1" parent="WIyWlLk6GJQsqaUBKTNV-1" source="C-ua_Iigtk_Ro6W7pgL2-62" target="C-ua_Iigtk_Ro6W7pgL2-9">
          <mxGeometry relative="1" as="geometry" />
        </mxCell>
        <mxCell id="C-ua_Iigtk_Ro6W7pgL2-141" style="edgeStyle=orthogonalEdgeStyle;rounded=0;orthogonalLoop=1;jettySize=auto;html=1;exitX=0.5;exitY=0;exitDx=0;exitDy=0;endArrow=none;endFill=0;" edge="1" parent="WIyWlLk6GJQsqaUBKTNV-1" source="C-ua_Iigtk_Ro6W7pgL2-62" target="C-ua_Iigtk_Ro6W7pgL2-18">
          <mxGeometry relative="1" as="geometry" />
        </mxCell>
        <mxCell id="C-ua_Iigtk_Ro6W7pgL2-62" value="&lt;font style=&quot;font-size: 30px;&quot;&gt;BROWSER브라우저&lt;br&gt;index.jsp&lt;/font&gt;" style="ellipse;whiteSpace=wrap;html=1;" vertex="1" parent="WIyWlLk6GJQsqaUBKTNV-1">
          <mxGeometry x="4290" y="2230" width="400" height="140" as="geometry" />
        </mxCell>
        <mxCell id="C-ua_Iigtk_Ro6W7pgL2-64" value="&lt;font style=&quot;font-size: 31px;&quot;&gt;Join.jsp&lt;/font&gt;" style="rounded=1;whiteSpace=wrap;html=1;" vertex="1" parent="WIyWlLk6GJQsqaUBKTNV-1">
          <mxGeometry x="4780" y="2110" width="250" height="70" as="geometry" />
        </mxCell>
        <mxCell id="C-ua_Iigtk_Ro6W7pgL2-65" value="&lt;font style=&quot;font-size: 31px;&quot;&gt;Login.jsp&lt;/font&gt;" style="rounded=1;whiteSpace=wrap;html=1;" vertex="1" parent="WIyWlLk6GJQsqaUBKTNV-1">
          <mxGeometry x="4780" y="2430" width="250" height="70" as="geometry" />
        </mxCell>
        <mxCell id="C-ua_Iigtk_Ro6W7pgL2-104" style="edgeStyle=orthogonalEdgeStyle;rounded=0;orthogonalLoop=1;jettySize=auto;html=1;exitX=0.5;exitY=1;exitDx=0;exitDy=0;entryX=0.5;entryY=0;entryDx=0;entryDy=0;endArrow=none;endFill=0;" edge="1" parent="WIyWlLk6GJQsqaUBKTNV-1" source="C-ua_Iigtk_Ro6W7pgL2-66" target="C-ua_Iigtk_Ro6W7pgL2-33">
          <mxGeometry relative="1" as="geometry" />
        </mxCell>
        <mxCell id="C-ua_Iigtk_Ro6W7pgL2-105" style="edgeStyle=orthogonalEdgeStyle;rounded=0;orthogonalLoop=1;jettySize=auto;html=1;exitX=0.5;exitY=1;exitDx=0;exitDy=0;entryX=0.5;entryY=0;entryDx=0;entryDy=0;endArrow=none;endFill=0;" edge="1" parent="WIyWlLk6GJQsqaUBKTNV-1" source="C-ua_Iigtk_Ro6W7pgL2-66" target="C-ua_Iigtk_Ro6W7pgL2-30">
          <mxGeometry relative="1" as="geometry" />
        </mxCell>
        <mxCell id="C-ua_Iigtk_Ro6W7pgL2-106" style="edgeStyle=orthogonalEdgeStyle;rounded=0;orthogonalLoop=1;jettySize=auto;html=1;exitX=0.5;exitY=1;exitDx=0;exitDy=0;endArrow=none;endFill=0;" edge="1" parent="WIyWlLk6GJQsqaUBKTNV-1" source="C-ua_Iigtk_Ro6W7pgL2-66" target="C-ua_Iigtk_Ro6W7pgL2-12">
          <mxGeometry relative="1" as="geometry" />
        </mxCell>
        <mxCell id="C-ua_Iigtk_Ro6W7pgL2-66" value="&lt;font style=&quot;font-size: 31px;&quot;&gt;AdminItemList.jsp&lt;br&gt;&lt;/font&gt;" style="rounded=1;whiteSpace=wrap;html=1;" vertex="1" parent="WIyWlLk6GJQsqaUBKTNV-1">
          <mxGeometry x="4230" y="3250" width="310" height="100" as="geometry" />
        </mxCell>
        <mxCell id="C-ua_Iigtk_Ro6W7pgL2-102" style="edgeStyle=orthogonalEdgeStyle;rounded=0;orthogonalLoop=1;jettySize=auto;html=1;exitX=0.5;exitY=1;exitDx=0;exitDy=0;entryX=0.5;entryY=0;entryDx=0;entryDy=0;startFill=1;endArrow=none;endFill=0;" edge="1" parent="WIyWlLk6GJQsqaUBKTNV-1" source="C-ua_Iigtk_Ro6W7pgL2-67" target="C-ua_Iigtk_Ro6W7pgL2-27">
          <mxGeometry relative="1" as="geometry">
            <Array as="points">
              <mxPoint x="4895" y="2960" />
              <mxPoint x="5515" y="2960" />
            </Array>
          </mxGeometry>
        </mxCell>
        <mxCell id="C-ua_Iigtk_Ro6W7pgL2-138" style="edgeStyle=orthogonalEdgeStyle;rounded=0;orthogonalLoop=1;jettySize=auto;html=1;exitX=0.5;exitY=0;exitDx=0;exitDy=0;" edge="1" parent="WIyWlLk6GJQsqaUBKTNV-1" source="C-ua_Iigtk_Ro6W7pgL2-67" target="C-ua_Iigtk_Ro6W7pgL2-9">
          <mxGeometry relative="1" as="geometry" />
        </mxCell>
        <mxCell id="C-ua_Iigtk_Ro6W7pgL2-143" style="edgeStyle=orthogonalEdgeStyle;rounded=0;orthogonalLoop=1;jettySize=auto;html=1;exitX=0.5;exitY=0;exitDx=0;exitDy=0;" edge="1" parent="WIyWlLk6GJQsqaUBKTNV-1" source="C-ua_Iigtk_Ro6W7pgL2-67" target="C-ua_Iigtk_Ro6W7pgL2-18">
          <mxGeometry relative="1" as="geometry">
            <Array as="points">
              <mxPoint x="4895" y="2540" />
              <mxPoint x="4090" y="2540" />
              <mxPoint x="4090" y="2180" />
              <mxPoint x="4410" y="2180" />
            </Array>
          </mxGeometry>
        </mxCell>
        <mxCell id="C-ua_Iigtk_Ro6W7pgL2-67" value="&lt;font style=&quot;font-size: 31px;&quot;&gt;Admin.jsp&lt;br&gt;&lt;/font&gt;" style="rounded=1;whiteSpace=wrap;html=1;" vertex="1" parent="WIyWlLk6GJQsqaUBKTNV-1">
          <mxGeometry x="4770" y="2860" width="250" height="70" as="geometry" />
        </mxCell>
        <mxCell id="C-ua_Iigtk_Ro6W7pgL2-68" value="&lt;font style=&quot;font-size: 31px;&quot;&gt;UserLIst.jsp&lt;/font&gt;" style="rounded=1;whiteSpace=wrap;html=1;" vertex="1" parent="WIyWlLk6GJQsqaUBKTNV-1">
          <mxGeometry x="5390" y="3280" width="250" height="70" as="geometry" />
        </mxCell>
        <mxCell id="C-ua_Iigtk_Ro6W7pgL2-136" style="edgeStyle=orthogonalEdgeStyle;rounded=0;orthogonalLoop=1;jettySize=auto;html=1;exitX=1;exitY=0.5;exitDx=0;exitDy=0;endArrow=none;endFill=0;" edge="1" parent="WIyWlLk6GJQsqaUBKTNV-1" source="C-ua_Iigtk_Ro6W7pgL2-70" target="C-ua_Iigtk_Ro6W7pgL2-9">
          <mxGeometry relative="1" as="geometry" />
        </mxCell>
        <mxCell id="C-ua_Iigtk_Ro6W7pgL2-139" style="edgeStyle=orthogonalEdgeStyle;rounded=0;orthogonalLoop=1;jettySize=auto;html=1;exitX=0.5;exitY=1;exitDx=0;exitDy=0;entryX=0;entryY=0.5;entryDx=0;entryDy=0;" edge="1" parent="WIyWlLk6GJQsqaUBKTNV-1" source="C-ua_Iigtk_Ro6W7pgL2-70" target="C-ua_Iigtk_Ro6W7pgL2-67">
          <mxGeometry relative="1" as="geometry" />
        </mxCell>
        <mxCell id="C-ua_Iigtk_Ro6W7pgL2-140" style="edgeStyle=orthogonalEdgeStyle;rounded=0;orthogonalLoop=1;jettySize=auto;html=1;exitX=0.5;exitY=0;exitDx=0;exitDy=0;entryX=0;entryY=0.5;entryDx=0;entryDy=0;endArrow=none;endFill=0;" edge="1" parent="WIyWlLk6GJQsqaUBKTNV-1" source="C-ua_Iigtk_Ro6W7pgL2-70" target="C-ua_Iigtk_Ro6W7pgL2-62">
          <mxGeometry relative="1" as="geometry" />
        </mxCell>
        <mxCell id="C-ua_Iigtk_Ro6W7pgL2-166" style="edgeStyle=orthogonalEdgeStyle;rounded=0;orthogonalLoop=1;jettySize=auto;html=1;exitX=0.25;exitY=0;exitDx=0;exitDy=0;endArrow=none;endFill=0;" edge="1" parent="WIyWlLk6GJQsqaUBKTNV-1" source="C-ua_Iigtk_Ro6W7pgL2-70" target="C-ua_Iigtk_Ro6W7pgL2-163">
          <mxGeometry relative="1" as="geometry">
            <Array as="points">
              <mxPoint x="3773" y="2610" />
              <mxPoint x="3445" y="2610" />
            </Array>
          </mxGeometry>
        </mxCell>
        <mxCell id="C-ua_Iigtk_Ro6W7pgL2-167" style="edgeStyle=orthogonalEdgeStyle;rounded=0;orthogonalLoop=1;jettySize=auto;html=1;exitX=0.25;exitY=1;exitDx=0;exitDy=0;endArrow=none;endFill=0;" edge="1" parent="WIyWlLk6GJQsqaUBKTNV-1" source="C-ua_Iigtk_Ro6W7pgL2-70" target="C-ua_Iigtk_Ro6W7pgL2-24">
          <mxGeometry relative="1" as="geometry">
            <Array as="points">
              <mxPoint x="3773" y="2720" />
              <mxPoint x="3445" y="2720" />
            </Array>
          </mxGeometry>
        </mxCell>
        <mxCell id="C-ua_Iigtk_Ro6W7pgL2-70" value="&lt;font style=&quot;font-size: 31px;&quot;&gt;shardQnAList.jsp&lt;br&gt;&lt;/font&gt;" style="rounded=1;whiteSpace=wrap;html=1;" vertex="1" parent="WIyWlLk6GJQsqaUBKTNV-1">
          <mxGeometry x="3700" y="2628" width="290" height="70" as="geometry" />
        </mxCell>
        <mxCell id="C-ua_Iigtk_Ro6W7pgL2-93" value="" style="endArrow=classic;html=1;rounded=0;" edge="1" parent="WIyWlLk6GJQsqaUBKTNV-1">
          <mxGeometry width="50" height="50" relative="1" as="geometry">
            <mxPoint x="4750" y="2960" as="sourcePoint" />
            <mxPoint x="4750" y="2960" as="targetPoint" />
          </mxGeometry>
        </mxCell>
        <mxCell id="C-ua_Iigtk_Ro6W7pgL2-79" value="&lt;font style=&quot;font-size: 38px;&quot;&gt;UserDAO&lt;/font&gt;" style="swimlane;fontStyle=1;align=center;verticalAlign=top;childLayout=stackLayout;horizontal=1;startSize=70;horizontalStack=0;resizeParent=1;resizeParentMax=0;resizeLast=0;collapsible=1;marginBottom=0;whiteSpace=wrap;html=1;" vertex="1" parent="WIyWlLk6GJQsqaUBKTNV-1">
          <mxGeometry x="5150" y="2110" width="440" height="372" as="geometry" />
        </mxCell>
        <mxCell id="C-ua_Iigtk_Ro6W7pgL2-80" value="&lt;font style=&quot;font-size: 20px;&quot;&gt;UserVO&lt;br&gt;+ instance : UserDAO&lt;br&gt;&lt;/font&gt;" style="text;strokeColor=none;fillColor=default;align=left;verticalAlign=top;spacingLeft=4;spacingRight=4;overflow=hidden;rotatable=0;points=[[0,0.5],[1,0.5]];portConstraint=eastwest;whiteSpace=wrap;html=1;" vertex="1" parent="C-ua_Iigtk_Ro6W7pgL2-79">
          <mxGeometry y="70" width="440" height="60" as="geometry" />
        </mxCell>
        <mxCell id="C-ua_Iigtk_Ro6W7pgL2-81" value="" style="line;strokeWidth=1;fillColor=none;align=left;verticalAlign=middle;spacingTop=-1;spacingLeft=3;spacingRight=3;rotatable=0;labelPosition=right;points=[];portConstraint=eastwest;strokeColor=inherit;" vertex="1" parent="C-ua_Iigtk_Ro6W7pgL2-79">
          <mxGeometry y="130" width="440" height="8" as="geometry" />
        </mxCell>
        <mxCell id="C-ua_Iigtk_Ro6W7pgL2-85" value="+ UserDAO() : 생성자" style="text;strokeColor=none;fillColor=none;align=left;verticalAlign=top;spacingLeft=4;spacingRight=4;overflow=hidden;rotatable=0;points=[[0,0.5],[1,0.5]];portConstraint=eastwest;whiteSpace=wrap;html=1;" vertex="1" parent="C-ua_Iigtk_Ro6W7pgL2-79">
          <mxGeometry y="138" width="440" height="26" as="geometry" />
        </mxCell>
        <mxCell id="C-ua_Iigtk_Ro6W7pgL2-84" value="+ getInstance(): UserDAO" style="text;strokeColor=none;fillColor=none;align=left;verticalAlign=top;spacingLeft=4;spacingRight=4;overflow=hidden;rotatable=0;points=[[0,0.5],[1,0.5]];portConstraint=eastwest;whiteSpace=wrap;html=1;" vertex="1" parent="C-ua_Iigtk_Ro6W7pgL2-79">
          <mxGeometry y="164" width="440" height="26" as="geometry" />
        </mxCell>
        <mxCell id="C-ua_Iigtk_Ro6W7pgL2-88" value="+ getConnection( ): Connection" style="text;strokeColor=none;fillColor=none;align=left;verticalAlign=top;spacingLeft=4;spacingRight=4;overflow=hidden;rotatable=0;points=[[0,0.5],[1,0.5]];portConstraint=eastwest;whiteSpace=wrap;html=1;" vertex="1" parent="C-ua_Iigtk_Ro6W7pgL2-79">
          <mxGeometry y="190" width="440" height="26" as="geometry" />
        </mxCell>
        <mxCell id="C-ua_Iigtk_Ro6W7pgL2-86" value="+ userCheck( String userId, String pwd ): int" style="text;strokeColor=none;fillColor=none;align=left;verticalAlign=top;spacingLeft=4;spacingRight=4;overflow=hidden;rotatable=0;points=[[0,0.5],[1,0.5]];portConstraint=eastwest;whiteSpace=wrap;html=1;" vertex="1" parent="C-ua_Iigtk_Ro6W7pgL2-79">
          <mxGeometry y="216" width="440" height="26" as="geometry" />
        </mxCell>
        <mxCell id="C-ua_Iigtk_Ro6W7pgL2-83" value="+ adminCheck(String adminId, String pwd): int" style="text;strokeColor=none;fillColor=none;align=left;verticalAlign=top;spacingLeft=4;spacingRight=4;overflow=hidden;rotatable=0;points=[[0,0.5],[1,0.5]];portConstraint=eastwest;whiteSpace=wrap;html=1;" vertex="1" parent="C-ua_Iigtk_Ro6W7pgL2-79">
          <mxGeometry y="242" width="440" height="26" as="geometry" />
        </mxCell>
        <mxCell id="C-ua_Iigtk_Ro6W7pgL2-87" value="+ idCheck( String userId): int" style="text;strokeColor=none;fillColor=none;align=left;verticalAlign=top;spacingLeft=4;spacingRight=4;overflow=hidden;rotatable=0;points=[[0,0.5],[1,0.5]];portConstraint=eastwest;whiteSpace=wrap;html=1;" vertex="1" parent="C-ua_Iigtk_Ro6W7pgL2-79">
          <mxGeometry y="268" width="440" height="26" as="geometry" />
        </mxCell>
        <mxCell id="C-ua_Iigtk_Ro6W7pgL2-82" value="+ insertMember(UserVO vo): int" style="text;strokeColor=none;fillColor=none;align=left;verticalAlign=top;spacingLeft=4;spacingRight=4;overflow=hidden;rotatable=0;points=[[0,0.5],[1,0.5]];portConstraint=eastwest;whiteSpace=wrap;html=1;" vertex="1" parent="C-ua_Iigtk_Ro6W7pgL2-79">
          <mxGeometry y="294" width="440" height="26" as="geometry" />
        </mxCell>
        <mxCell id="C-ua_Iigtk_Ro6W7pgL2-90" value="&lt;div&gt;+ getMember(String userId): UserVO&lt;/div&gt;&lt;div&gt;&lt;br&gt;&lt;/div&gt;" style="text;strokeColor=none;fillColor=none;align=left;verticalAlign=top;spacingLeft=4;spacingRight=4;overflow=hidden;rotatable=0;points=[[0,0.5],[1,0.5]];portConstraint=eastwest;whiteSpace=wrap;html=1;" vertex="1" parent="C-ua_Iigtk_Ro6W7pgL2-79">
          <mxGeometry y="320" width="440" height="26" as="geometry" />
        </mxCell>
        <mxCell id="C-ua_Iigtk_Ro6W7pgL2-91" value="+ deleteUser(String userId) : int" style="text;strokeColor=none;fillColor=none;align=left;verticalAlign=top;spacingLeft=4;spacingRight=4;overflow=hidden;rotatable=0;points=[[0,0.5],[1,0.5]];portConstraint=eastwest;whiteSpace=wrap;html=1;" vertex="1" parent="C-ua_Iigtk_Ro6W7pgL2-79">
          <mxGeometry y="346" width="440" height="26" as="geometry" />
        </mxCell>
        <mxCell id="C-ua_Iigtk_Ro6W7pgL2-100" value="" style="endArrow=none;html=1;rounded=0;exitX=0.5;exitY=0;exitDx=0;exitDy=0;entryX=0.5;entryY=1;entryDx=0;entryDy=0;" edge="1" parent="WIyWlLk6GJQsqaUBKTNV-1" source="C-ua_Iigtk_Ro6W7pgL2-5" target="C-ua_Iigtk_Ro6W7pgL2-67">
          <mxGeometry width="50" height="50" relative="1" as="geometry">
            <mxPoint x="5010" y="3080" as="sourcePoint" />
            <mxPoint x="5060" y="3030" as="targetPoint" />
            <Array as="points">
              <mxPoint x="4380" y="3020" />
              <mxPoint x="4380" y="2960" />
              <mxPoint x="4895" y="2960" />
            </Array>
          </mxGeometry>
        </mxCell>
        <mxCell id="C-ua_Iigtk_Ro6W7pgL2-101" value="" style="endArrow=none;html=1;rounded=0;entryX=0.459;entryY=1.033;entryDx=0;entryDy=0;entryPerimeter=0;" edge="1" parent="WIyWlLk6GJQsqaUBKTNV-1" target="C-ua_Iigtk_Ro6W7pgL2-7">
          <mxGeometry width="50" height="50" relative="1" as="geometry">
            <mxPoint x="4379" y="3250" as="sourcePoint" />
            <mxPoint x="5060" y="3230" as="targetPoint" />
          </mxGeometry>
        </mxCell>
        <mxCell id="C-ua_Iigtk_Ro6W7pgL2-103" style="edgeStyle=orthogonalEdgeStyle;rounded=0;orthogonalLoop=1;jettySize=auto;html=1;exitX=0.5;exitY=0;exitDx=0;exitDy=0;entryX=0.501;entryY=0.983;entryDx=0;entryDy=0;entryPerimeter=0;endArrow=none;endFill=0;" edge="1" parent="WIyWlLk6GJQsqaUBKTNV-1" source="C-ua_Iigtk_Ro6W7pgL2-68" target="C-ua_Iigtk_Ro6W7pgL2-29">
          <mxGeometry relative="1" as="geometry" />
        </mxCell>
        <mxCell id="C-ua_Iigtk_Ro6W7pgL2-119" style="edgeStyle=orthogonalEdgeStyle;rounded=0;orthogonalLoop=1;jettySize=auto;html=1;exitX=0.5;exitY=0;exitDx=0;exitDy=0;entryX=0.5;entryY=1;entryDx=0;entryDy=0;endArrow=none;endFill=0;" edge="1" parent="WIyWlLk6GJQsqaUBKTNV-1" source="C-ua_Iigtk_Ro6W7pgL2-107" target="C-ua_Iigtk_Ro6W7pgL2-33">
          <mxGeometry relative="1" as="geometry" />
        </mxCell>
        <mxCell id="C-ua_Iigtk_Ro6W7pgL2-107" value="UserDAO" style="swimlane;fontStyle=1;align=center;verticalAlign=top;childLayout=stackLayout;horizontal=1;startSize=80;horizontalStack=0;resizeParent=1;resizeParentMax=0;resizeLast=0;collapsible=1;marginBottom=0;whiteSpace=wrap;html=1;" vertex="1" parent="WIyWlLk6GJQsqaUBKTNV-1">
          <mxGeometry x="4165" y="3790" width="440" height="382" as="geometry" />
        </mxCell>
        <mxCell id="C-ua_Iigtk_Ro6W7pgL2-108" value="&lt;font style=&quot;font-size: 20px;&quot;&gt;UserVO&lt;br&gt;+ instance : UserDAO&lt;br&gt;&lt;/font&gt;" style="text;strokeColor=none;fillColor=none;align=left;verticalAlign=top;spacingLeft=4;spacingRight=4;overflow=hidden;rotatable=0;points=[[0,0.5],[1,0.5]];portConstraint=eastwest;whiteSpace=wrap;html=1;" vertex="1" parent="C-ua_Iigtk_Ro6W7pgL2-107">
          <mxGeometry y="80" width="440" height="60" as="geometry" />
        </mxCell>
        <mxCell id="C-ua_Iigtk_Ro6W7pgL2-109" value="" style="line;strokeWidth=1;fillColor=none;align=left;verticalAlign=middle;spacingTop=-1;spacingLeft=3;spacingRight=3;rotatable=0;labelPosition=right;points=[];portConstraint=eastwest;strokeColor=inherit;" vertex="1" parent="C-ua_Iigtk_Ro6W7pgL2-107">
          <mxGeometry y="140" width="440" height="8" as="geometry" />
        </mxCell>
        <mxCell id="C-ua_Iigtk_Ro6W7pgL2-110" value="+ UserDAO() : 생성자" style="text;strokeColor=none;fillColor=none;align=left;verticalAlign=top;spacingLeft=4;spacingRight=4;overflow=hidden;rotatable=0;points=[[0,0.5],[1,0.5]];portConstraint=eastwest;whiteSpace=wrap;html=1;" vertex="1" parent="C-ua_Iigtk_Ro6W7pgL2-107">
          <mxGeometry y="148" width="440" height="26" as="geometry" />
        </mxCell>
        <mxCell id="C-ua_Iigtk_Ro6W7pgL2-111" value="+ getInstance(): UserDAO" style="text;strokeColor=none;fillColor=none;align=left;verticalAlign=top;spacingLeft=4;spacingRight=4;overflow=hidden;rotatable=0;points=[[0,0.5],[1,0.5]];portConstraint=eastwest;whiteSpace=wrap;html=1;" vertex="1" parent="C-ua_Iigtk_Ro6W7pgL2-107">
          <mxGeometry y="174" width="440" height="26" as="geometry" />
        </mxCell>
        <mxCell id="C-ua_Iigtk_Ro6W7pgL2-112" value="+ getConnection( ): Connection" style="text;strokeColor=none;fillColor=none;align=left;verticalAlign=top;spacingLeft=4;spacingRight=4;overflow=hidden;rotatable=0;points=[[0,0.5],[1,0.5]];portConstraint=eastwest;whiteSpace=wrap;html=1;" vertex="1" parent="C-ua_Iigtk_Ro6W7pgL2-107">
          <mxGeometry y="200" width="440" height="26" as="geometry" />
        </mxCell>
        <mxCell id="C-ua_Iigtk_Ro6W7pgL2-113" value="+ userCheck( String userId, String pwd ): int" style="text;strokeColor=none;fillColor=none;align=left;verticalAlign=top;spacingLeft=4;spacingRight=4;overflow=hidden;rotatable=0;points=[[0,0.5],[1,0.5]];portConstraint=eastwest;whiteSpace=wrap;html=1;" vertex="1" parent="C-ua_Iigtk_Ro6W7pgL2-107">
          <mxGeometry y="226" width="440" height="26" as="geometry" />
        </mxCell>
        <mxCell id="C-ua_Iigtk_Ro6W7pgL2-114" value="+ adminCheck(String adminId, String pwd): int" style="text;strokeColor=none;fillColor=none;align=left;verticalAlign=top;spacingLeft=4;spacingRight=4;overflow=hidden;rotatable=0;points=[[0,0.5],[1,0.5]];portConstraint=eastwest;whiteSpace=wrap;html=1;" vertex="1" parent="C-ua_Iigtk_Ro6W7pgL2-107">
          <mxGeometry y="252" width="440" height="26" as="geometry" />
        </mxCell>
        <mxCell id="C-ua_Iigtk_Ro6W7pgL2-115" value="+ idCheck( String userId): int" style="text;strokeColor=none;fillColor=none;align=left;verticalAlign=top;spacingLeft=4;spacingRight=4;overflow=hidden;rotatable=0;points=[[0,0.5],[1,0.5]];portConstraint=eastwest;whiteSpace=wrap;html=1;" vertex="1" parent="C-ua_Iigtk_Ro6W7pgL2-107">
          <mxGeometry y="278" width="440" height="26" as="geometry" />
        </mxCell>
        <mxCell id="C-ua_Iigtk_Ro6W7pgL2-116" value="+ insertMember(UserVO vo): int" style="text;strokeColor=none;fillColor=none;align=left;verticalAlign=top;spacingLeft=4;spacingRight=4;overflow=hidden;rotatable=0;points=[[0,0.5],[1,0.5]];portConstraint=eastwest;whiteSpace=wrap;html=1;" vertex="1" parent="C-ua_Iigtk_Ro6W7pgL2-107">
          <mxGeometry y="304" width="440" height="26" as="geometry" />
        </mxCell>
        <mxCell id="C-ua_Iigtk_Ro6W7pgL2-117" value="&lt;div&gt;+ getMember(String userId): UserVO&lt;/div&gt;&lt;div&gt;&lt;br&gt;&lt;/div&gt;" style="text;strokeColor=none;fillColor=none;align=left;verticalAlign=top;spacingLeft=4;spacingRight=4;overflow=hidden;rotatable=0;points=[[0,0.5],[1,0.5]];portConstraint=eastwest;whiteSpace=wrap;html=1;" vertex="1" parent="C-ua_Iigtk_Ro6W7pgL2-107">
          <mxGeometry y="330" width="440" height="26" as="geometry" />
        </mxCell>
        <mxCell id="C-ua_Iigtk_Ro6W7pgL2-118" value="+ deleteUser(String userId) : int" style="text;strokeColor=none;fillColor=none;align=left;verticalAlign=top;spacingLeft=4;spacingRight=4;overflow=hidden;rotatable=0;points=[[0,0.5],[1,0.5]];portConstraint=eastwest;whiteSpace=wrap;html=1;" vertex="1" parent="C-ua_Iigtk_Ro6W7pgL2-107">
          <mxGeometry y="356" width="440" height="26" as="geometry" />
        </mxCell>
        <mxCell id="C-ua_Iigtk_Ro6W7pgL2-120" style="edgeStyle=orthogonalEdgeStyle;rounded=0;orthogonalLoop=1;jettySize=auto;html=1;exitX=0.5;exitY=0;exitDx=0;exitDy=0;entryX=0.5;entryY=1.017;entryDx=0;entryDy=0;entryPerimeter=0;endArrow=none;endFill=0;" edge="1" parent="WIyWlLk6GJQsqaUBKTNV-1" source="C-ua_Iigtk_Ro6W7pgL2-107" target="C-ua_Iigtk_Ro6W7pgL2-32">
          <mxGeometry relative="1" as="geometry" />
        </mxCell>
        <mxCell id="C-ua_Iigtk_Ro6W7pgL2-121" style="edgeStyle=orthogonalEdgeStyle;rounded=0;orthogonalLoop=1;jettySize=auto;html=1;exitX=0.5;exitY=0;exitDx=0;exitDy=0;entryX=0.561;entryY=0.983;entryDx=0;entryDy=0;entryPerimeter=0;endArrow=none;endFill=0;" edge="1" parent="WIyWlLk6GJQsqaUBKTNV-1" source="C-ua_Iigtk_Ro6W7pgL2-107" target="C-ua_Iigtk_Ro6W7pgL2-14">
          <mxGeometry relative="1" as="geometry" />
        </mxCell>
        <mxCell id="C-ua_Iigtk_Ro6W7pgL2-124" style="edgeStyle=orthogonalEdgeStyle;rounded=0;orthogonalLoop=1;jettySize=auto;html=1;exitX=1;exitY=0.5;exitDx=0;exitDy=0;entryX=0.529;entryY=1.016;entryDx=0;entryDy=0;entryPerimeter=0;startArrow=classic;startFill=1;endArrow=none;endFill=0;" edge="1" parent="WIyWlLk6GJQsqaUBKTNV-1" source="C-ua_Iigtk_Ro6W7pgL2-67" target="C-ua_Iigtk_Ro6W7pgL2-17">
          <mxGeometry relative="1" as="geometry" />
        </mxCell>
        <mxCell id="C-ua_Iigtk_Ro6W7pgL2-125" style="edgeStyle=orthogonalEdgeStyle;rounded=0;orthogonalLoop=1;jettySize=auto;html=1;exitX=1;exitY=0.5;exitDx=0;exitDy=0;entryX=-0.014;entryY=-0.082;entryDx=0;entryDy=0;entryPerimeter=0;endArrow=none;endFill=0;" edge="1" parent="WIyWlLk6GJQsqaUBKTNV-1" source="C-ua_Iigtk_Ro6W7pgL2-65" target="C-ua_Iigtk_Ro6W7pgL2-17">
          <mxGeometry relative="1" as="geometry" />
        </mxCell>
        <mxCell id="C-ua_Iigtk_Ro6W7pgL2-128" style="edgeStyle=orthogonalEdgeStyle;rounded=0;orthogonalLoop=1;jettySize=auto;html=1;exitX=1;exitY=0.5;exitDx=0;exitDy=0;entryX=-0.005;entryY=-0.043;entryDx=0;entryDy=0;entryPerimeter=0;endArrow=none;endFill=0;" edge="1" parent="WIyWlLk6GJQsqaUBKTNV-1" source="C-ua_Iigtk_Ro6W7pgL2-64" target="C-ua_Iigtk_Ro6W7pgL2-23">
          <mxGeometry relative="1" as="geometry" />
        </mxCell>
        <mxCell id="C-ua_Iigtk_Ro6W7pgL2-133" value="" style="endArrow=none;dashed=1;html=1;dashPattern=1 3;strokeWidth=2;rounded=0;exitX=0.5;exitY=0;exitDx=0;exitDy=0;strokeColor=default;" edge="1" parent="WIyWlLk6GJQsqaUBKTNV-1" source="C-ua_Iigtk_Ro6W7pgL2-79" target="C-ua_Iigtk_Ro6W7pgL2-21">
          <mxGeometry width="50" height="50" relative="1" as="geometry">
            <mxPoint x="5550" y="2080" as="sourcePoint" />
            <mxPoint x="5110" y="2310" as="targetPoint" />
          </mxGeometry>
        </mxCell>
        <mxCell id="C-ua_Iigtk_Ro6W7pgL2-144" value="&lt;div style=&quot;box-sizing:border-box;width:100%;background:#e4e4e4;padding:2px;&quot;&gt;&lt;p data-pm-slice=&quot;1 1 [&amp;quot;tiptapChildEditor&amp;quot;,{&amp;quot;id&amp;quot;:&amp;quot;97b59b13-443c-4179-be96-2f6b4b0085f6&amp;quot;,&amp;quot;shapeId&amp;quot;:&amp;quot;AZUDldcBAm2&amp;quot;,&amp;quot;textId&amp;quot;:&amp;quot;headertext&amp;quot;}]&quot; style=&quot;text-align: center&quot;&gt;CUSTOMER&lt;/p&gt;&lt;/div&gt;&lt;table style=&quot;width:100%;font-size:1em;&quot; cellpadding=&quot;2&quot; cellspacing=&quot;0&quot;&gt;&lt;tbody&gt;&lt;tr&gt;&lt;td&gt;&lt;p&gt;USERID&lt;span style=&quot;white-space: pre;&quot;&gt;&amp;nbsp;&amp;nbsp;&amp;nbsp;&amp;nbsp;&lt;/span&gt;VARCHAR2(15 BYTE)&lt;/p&gt;&lt;p&gt;&lt;span style=&quot;color: rgb(53, 72, 96); font-size: 10pt; font-family: noto_regular&quot;&gt;USERPWD&lt;span style=&quot;white-space: pre;&quot;&gt;&amp;nbsp;&amp;nbsp;&amp;nbsp;&amp;nbsp;&lt;/span&gt;VARCHAR2(100 BYTE)&lt;/span&gt;&lt;/p&gt;&lt;p&gt;&lt;span style=&quot;color: rgb(53, 72, 96); font-size: 10pt; font-family: noto_regular&quot;&gt;USERNAME&lt;span style=&quot;white-space: pre;&quot;&gt;&amp;nbsp;&amp;nbsp;&amp;nbsp;&amp;nbsp;&lt;/span&gt;VARCHAR2(25 BYTE)&lt;/span&gt;&lt;/p&gt;&lt;p&gt;&lt;span style=&quot;color: rgb(53, 72, 96); font-size: 10pt; font-family: noto_regular&quot;&gt;EMAIL&lt;span style=&quot;white-space: pre;&quot;&gt;&amp;nbsp;&amp;nbsp;&amp;nbsp;&amp;nbsp;&lt;/span&gt;VARCHAR2(25 BYTE)&lt;/span&gt;&lt;/p&gt;&lt;p&gt;&lt;span style=&quot;color: rgb(53, 72, 96); font-size: 10pt; font-family: noto_regular&quot;&gt;PHONE&lt;span style=&quot;white-space: pre;&quot;&gt;&amp;nbsp;&amp;nbsp;&amp;nbsp;&amp;nbsp;&lt;/span&gt;VARCHAR2(13 BYTE)&lt;/span&gt;&lt;/p&gt;&lt;p&gt;&lt;span style=&quot;color: rgb(53, 72, 96); font-size: 10pt; font-family: noto_regular&quot;&gt;ADDRESS&lt;span style=&quot;white-space: pre;&quot;&gt;&amp;nbsp;&amp;nbsp;&amp;nbsp;&amp;nbsp;&lt;/span&gt;VARCHAR2(300 BYTE)&lt;/span&gt;&lt;/p&gt;&lt;p&gt;&lt;span style=&quot;color: rgb(53, 72, 96); font-size: 10pt; font-family: noto_regular&quot;&gt;GENDER&lt;span style=&quot;white-space: pre;&quot;&gt;&amp;nbsp;&amp;nbsp;&amp;nbsp;&amp;nbsp;&lt;/span&gt;NUMBER(1,0)&lt;/span&gt;&lt;/p&gt;&lt;p&gt;&lt;span style=&quot;color: rgb(53, 72, 96); font-size: 10pt; font-family: noto_regular&quot;&gt;DOB&lt;span style=&quot;white-space: pre;&quot;&gt;&amp;nbsp;&amp;nbsp;&amp;nbsp;&amp;nbsp;&lt;/span&gt;DATE&lt;/span&gt;&lt;/p&gt;&lt;p&gt;&lt;span style=&quot;color: rgb(53, 72, 96); font-size: 10pt; font-family: noto_regular&quot;&gt;SECESSION&lt;span style=&quot;white-space: pre;&quot;&gt;&amp;nbsp;&amp;nbsp;&amp;nbsp;&amp;nbsp;&lt;/span&gt;NUMBER(1,0)&lt;/span&gt;&lt;/p&gt;&lt;p&gt;&lt;span style=&quot;color: rgb(53, 72, 96); font-size: 10pt; font-family: noto_regular&quot;&gt;POINT&lt;span style=&quot;white-space: pre;&quot;&gt;&amp;nbsp;&amp;nbsp;&amp;nbsp;&amp;nbsp;&lt;/span&gt;NUMBER&lt;/span&gt;&lt;/p&gt;&lt;p&gt;&lt;span style=&quot;color: rgb(53, 72, 96); font-size: 10pt; font-family: noto_regular&quot;&gt;USERADDR&lt;span style=&quot;white-space: pre;&quot;&gt;&amp;nbsp;&amp;nbsp;&amp;nbsp;&amp;nbsp;&lt;/span&gt;VARCHAR2(400 BYTE)&lt;/span&gt;&lt;/p&gt;&lt;p&gt;&lt;span style=&quot;color: rgb(53, 72, 96); font-size: 10pt; font-family: noto_regular&quot;&gt;MEMNUM&lt;span style=&quot;white-space: pre;&quot;&gt;&amp;nbsp;&amp;nbsp;&amp;nbsp;&amp;nbsp;&lt;/span&gt;NUMBER&lt;/span&gt;&lt;/p&gt;&lt;p&gt;&lt;span style=&quot;color: rgb(53, 72, 96); font-size: 10pt; font-family: noto_regular&quot;&gt;AUTHCODE&lt;span style=&quot;white-space: pre;&quot;&gt;&amp;nbsp;&amp;nbsp;&amp;nbsp;&amp;nbsp;&lt;/span&gt;VARCHAR2(1 BYTE)&lt;/span&gt;&lt;/p&gt;&lt;/td&gt;&lt;td&gt;&lt;br&gt;&lt;/td&gt;&lt;/tr&gt;&lt;/tbody&gt;&lt;/table&gt;" style="verticalAlign=top;align=left;overflow=fill;html=1;whiteSpace=wrap;" vertex="1" parent="WIyWlLk6GJQsqaUBKTNV-1">
          <mxGeometry x="5760" y="1970" width="490" height="510" as="geometry" />
        </mxCell>
        <mxCell id="C-ua_Iigtk_Ro6W7pgL2-146" style="edgeStyle=orthogonalEdgeStyle;rounded=0;orthogonalLoop=1;jettySize=auto;html=1;exitX=0;exitY=0.5;exitDx=0;exitDy=0;entryX=1.005;entryY=0.113;entryDx=0;entryDy=0;entryPerimeter=0;dashed=1;endArrow=none;endFill=0;" edge="1" parent="WIyWlLk6GJQsqaUBKTNV-1" source="C-ua_Iigtk_Ro6W7pgL2-144" target="C-ua_Iigtk_Ro6W7pgL2-79">
          <mxGeometry relative="1" as="geometry" />
        </mxCell>
        <mxCell id="C-ua_Iigtk_Ro6W7pgL2-148" style="edgeStyle=orthogonalEdgeStyle;rounded=0;orthogonalLoop=1;jettySize=auto;html=1;exitX=0;exitY=0.5;exitDx=0;exitDy=0;endArrow=none;endFill=0;dashed=1;" edge="1" parent="WIyWlLk6GJQsqaUBKTNV-1" source="C-ua_Iigtk_Ro6W7pgL2-147" target="C-ua_Iigtk_Ro6W7pgL2-107">
          <mxGeometry relative="1" as="geometry" />
        </mxCell>
        <mxCell id="C-ua_Iigtk_Ro6W7pgL2-147" value="&lt;div style=&quot;box-sizing:border-box;width:100%;background:#e4e4e4;padding:2px;&quot;&gt;&lt;p data-pm-slice=&quot;1 1 [&amp;quot;tiptapChildEditor&amp;quot;,{&amp;quot;id&amp;quot;:&amp;quot;97b59b13-443c-4179-be96-2f6b4b0085f6&amp;quot;,&amp;quot;shapeId&amp;quot;:&amp;quot;AZUDldcBAm2&amp;quot;,&amp;quot;textId&amp;quot;:&amp;quot;headertext&amp;quot;}]&quot; style=&quot;text-align: center&quot;&gt;CUSTOMER&lt;/p&gt;&lt;/div&gt;&lt;table style=&quot;width:100%;font-size:1em;&quot; cellpadding=&quot;2&quot; cellspacing=&quot;0&quot;&gt;&lt;tbody&gt;&lt;tr&gt;&lt;td&gt;&lt;p&gt;USERID&lt;span style=&quot;white-space: pre;&quot;&gt;&amp;nbsp;&amp;nbsp;&amp;nbsp;&amp;nbsp;&lt;/span&gt;VARCHAR2(15 BYTE)&lt;/p&gt;&lt;p&gt;&lt;span style=&quot;color: rgb(53, 72, 96); font-size: 10pt; font-family: noto_regular&quot;&gt;USERPWD&lt;span style=&quot;white-space: pre;&quot;&gt;&amp;nbsp;&amp;nbsp;&amp;nbsp;&amp;nbsp;&lt;/span&gt;VARCHAR2(100 BYTE)&lt;/span&gt;&lt;/p&gt;&lt;p&gt;&lt;span style=&quot;color: rgb(53, 72, 96); font-size: 10pt; font-family: noto_regular&quot;&gt;USERNAME&lt;span style=&quot;white-space: pre;&quot;&gt;&amp;nbsp;&amp;nbsp;&amp;nbsp;&amp;nbsp;&lt;/span&gt;VARCHAR2(25 BYTE)&lt;/span&gt;&lt;/p&gt;&lt;p&gt;&lt;span style=&quot;color: rgb(53, 72, 96); font-size: 10pt; font-family: noto_regular&quot;&gt;EMAIL&lt;span style=&quot;white-space: pre;&quot;&gt;&amp;nbsp;&amp;nbsp;&amp;nbsp;&amp;nbsp;&lt;/span&gt;VARCHAR2(25 BYTE)&lt;/span&gt;&lt;/p&gt;&lt;p&gt;&lt;span style=&quot;color: rgb(53, 72, 96); font-size: 10pt; font-family: noto_regular&quot;&gt;PHONE&lt;span style=&quot;white-space: pre;&quot;&gt;&amp;nbsp;&amp;nbsp;&amp;nbsp;&amp;nbsp;&lt;/span&gt;VARCHAR2(13 BYTE)&lt;/span&gt;&lt;/p&gt;&lt;p&gt;&lt;span style=&quot;color: rgb(53, 72, 96); font-size: 10pt; font-family: noto_regular&quot;&gt;ADDRESS&lt;span style=&quot;white-space: pre;&quot;&gt;&amp;nbsp;&amp;nbsp;&amp;nbsp;&amp;nbsp;&lt;/span&gt;VARCHAR2(300 BYTE)&lt;/span&gt;&lt;/p&gt;&lt;p&gt;&lt;span style=&quot;color: rgb(53, 72, 96); font-size: 10pt; font-family: noto_regular&quot;&gt;GENDER&lt;span style=&quot;white-space: pre;&quot;&gt;&amp;nbsp;&amp;nbsp;&amp;nbsp;&amp;nbsp;&lt;/span&gt;NUMBER(1,0)&lt;/span&gt;&lt;/p&gt;&lt;p&gt;&lt;span style=&quot;color: rgb(53, 72, 96); font-size: 10pt; font-family: noto_regular&quot;&gt;DOB&lt;span style=&quot;white-space: pre;&quot;&gt;&amp;nbsp;&amp;nbsp;&amp;nbsp;&amp;nbsp;&lt;/span&gt;DATE&lt;/span&gt;&lt;/p&gt;&lt;p&gt;&lt;span style=&quot;color: rgb(53, 72, 96); font-size: 10pt; font-family: noto_regular&quot;&gt;SECESSION&lt;span style=&quot;white-space: pre;&quot;&gt;&amp;nbsp;&amp;nbsp;&amp;nbsp;&amp;nbsp;&lt;/span&gt;NUMBER(1,0)&lt;/span&gt;&lt;/p&gt;&lt;p&gt;&lt;span style=&quot;color: rgb(53, 72, 96); font-size: 10pt; font-family: noto_regular&quot;&gt;POINT&lt;span style=&quot;white-space: pre;&quot;&gt;&amp;nbsp;&amp;nbsp;&amp;nbsp;&amp;nbsp;&lt;/span&gt;NUMBER&lt;/span&gt;&lt;/p&gt;&lt;p&gt;&lt;span style=&quot;color: rgb(53, 72, 96); font-size: 10pt; font-family: noto_regular&quot;&gt;USERADDR&lt;span style=&quot;white-space: pre;&quot;&gt;&amp;nbsp;&amp;nbsp;&amp;nbsp;&amp;nbsp;&lt;/span&gt;VARCHAR2(400 BYTE)&lt;/span&gt;&lt;/p&gt;&lt;p&gt;&lt;span style=&quot;color: rgb(53, 72, 96); font-size: 10pt; font-family: noto_regular&quot;&gt;MEMNUM&lt;span style=&quot;white-space: pre;&quot;&gt;&amp;nbsp;&amp;nbsp;&amp;nbsp;&amp;nbsp;&lt;/span&gt;NUMBER&lt;/span&gt;&lt;/p&gt;&lt;p&gt;&lt;span style=&quot;color: rgb(53, 72, 96); font-size: 10pt; font-family: noto_regular&quot;&gt;AUTHCODE&lt;span style=&quot;white-space: pre;&quot;&gt;&amp;nbsp;&amp;nbsp;&amp;nbsp;&amp;nbsp;&lt;/span&gt;VARCHAR2(1 BYTE)&lt;/span&gt;&lt;/p&gt;&lt;/td&gt;&lt;td&gt;&lt;br&gt;&lt;/td&gt;&lt;/tr&gt;&lt;/tbody&gt;&lt;/table&gt;" style="verticalAlign=top;align=left;overflow=fill;html=1;whiteSpace=wrap;" vertex="1" parent="WIyWlLk6GJQsqaUBKTNV-1">
          <mxGeometry x="5175" y="3726" width="490" height="510" as="geometry" />
        </mxCell>
        <mxCell id="C-ua_Iigtk_Ro6W7pgL2-170" style="edgeStyle=orthogonalEdgeStyle;rounded=0;orthogonalLoop=1;jettySize=auto;html=1;exitX=0.5;exitY=0;exitDx=0;exitDy=0;dashed=1;endArrow=none;endFill=0;" edge="1" parent="WIyWlLk6GJQsqaUBKTNV-1" source="C-ua_Iigtk_Ro6W7pgL2-149" target="C-ua_Iigtk_Ro6W7pgL2-163">
          <mxGeometry relative="1" as="geometry">
            <Array as="points">
              <mxPoint x="3030" y="2480" />
              <mxPoint x="3360" y="2480" />
            </Array>
          </mxGeometry>
        </mxCell>
        <mxCell id="C-ua_Iigtk_Ro6W7pgL2-149" value="&lt;p data-pm-slice=&quot;1 1 [&amp;quot;tiptapChildEditor&amp;quot;,{&amp;quot;id&amp;quot;:&amp;quot;bb9aec38-6b6d-4972-979d-f6427995c20e&amp;quot;,&amp;quot;shapeId&amp;quot;:&amp;quot;laZ4YIISkif&amp;quot;,&amp;quot;textId&amp;quot;:&amp;quot;headertext&amp;quot;}]&quot;&gt;&lt;font style=&quot;font-size: 32px;&quot;&gt;QnAReplyDAO&lt;/font&gt;&lt;/p&gt;" style="swimlane;fontStyle=1;align=center;verticalAlign=top;childLayout=stackLayout;horizontal=1;startSize=70;horizontalStack=0;resizeParent=1;resizeParentMax=0;resizeLast=0;collapsible=1;marginBottom=0;whiteSpace=wrap;html=1;" vertex="1" parent="WIyWlLk6GJQsqaUBKTNV-1">
          <mxGeometry x="2810" y="2500" width="440" height="290" as="geometry" />
        </mxCell>
        <mxCell id="C-ua_Iigtk_Ro6W7pgL2-150" value="&lt;font style=&quot;font-size: 20px;&quot;&gt;QnAReplyVO&lt;br&gt;+ instance : QnAReplyDAO&lt;br&gt;&lt;/font&gt;" style="text;strokeColor=none;fillColor=default;align=left;verticalAlign=top;spacingLeft=4;spacingRight=4;overflow=hidden;rotatable=0;points=[[0,0.5],[1,0.5]];portConstraint=eastwest;whiteSpace=wrap;html=1;" vertex="1" parent="C-ua_Iigtk_Ro6W7pgL2-149">
          <mxGeometry y="70" width="440" height="60" as="geometry" />
        </mxCell>
        <mxCell id="C-ua_Iigtk_Ro6W7pgL2-151" value="" style="line;strokeWidth=1;fillColor=none;align=left;verticalAlign=middle;spacingTop=-1;spacingLeft=3;spacingRight=3;rotatable=0;labelPosition=right;points=[];portConstraint=eastwest;strokeColor=inherit;" vertex="1" parent="C-ua_Iigtk_Ro6W7pgL2-149">
          <mxGeometry y="130" width="440" height="8" as="geometry" />
        </mxCell>
        <mxCell id="C-ua_Iigtk_Ro6W7pgL2-152" value="&lt;font style=&quot;font-size: 16px;&quot;&gt;- QnAReplyDAO()&lt;/font&gt;" style="text;strokeColor=none;fillColor=none;align=left;verticalAlign=top;spacingLeft=4;spacingRight=4;overflow=hidden;rotatable=0;points=[[0,0.5],[1,0.5]];portConstraint=eastwest;whiteSpace=wrap;html=1;" vertex="1" parent="C-ua_Iigtk_Ro6W7pgL2-149">
          <mxGeometry y="138" width="440" height="42" as="geometry" />
        </mxCell>
        <mxCell id="C-ua_Iigtk_Ro6W7pgL2-153" value="&lt;font style=&quot;font-size: 16px;&quot;&gt;+ getConnection() : Connection&lt;/font&gt;" style="text;strokeColor=none;fillColor=none;align=left;verticalAlign=top;spacingLeft=4;spacingRight=4;overflow=hidden;rotatable=0;points=[[0,0.5],[1,0.5]];portConstraint=eastwest;whiteSpace=wrap;html=1;" vertex="1" parent="C-ua_Iigtk_Ro6W7pgL2-149">
          <mxGeometry y="180" width="440" height="36" as="geometry" />
        </mxCell>
        <mxCell id="C-ua_Iigtk_Ro6W7pgL2-154" value="&lt;font style=&quot;font-size: 16px;&quot;&gt;+ insertQnA() : int&lt;/font&gt;" style="text;strokeColor=none;fillColor=none;align=left;verticalAlign=top;spacingLeft=4;spacingRight=4;overflow=hidden;rotatable=0;points=[[0,0.5],[1,0.5]];portConstraint=eastwest;whiteSpace=wrap;html=1;" vertex="1" parent="C-ua_Iigtk_Ro6W7pgL2-149">
          <mxGeometry y="216" width="440" height="40" as="geometry" />
        </mxCell>
        <mxCell id="C-ua_Iigtk_Ro6W7pgL2-155" value="&lt;font style=&quot;font-size: 16px;&quot;&gt;+ deleteQnA() : int&lt;/font&gt;" style="text;strokeColor=none;fillColor=none;align=left;verticalAlign=top;spacingLeft=4;spacingRight=4;overflow=hidden;rotatable=0;points=[[0,0.5],[1,0.5]];portConstraint=eastwest;whiteSpace=wrap;html=1;" vertex="1" parent="C-ua_Iigtk_Ro6W7pgL2-149">
          <mxGeometry y="256" width="440" height="34" as="geometry" />
        </mxCell>
        <mxCell id="C-ua_Iigtk_Ro6W7pgL2-168" style="edgeStyle=orthogonalEdgeStyle;rounded=0;orthogonalLoop=1;jettySize=auto;html=1;exitX=1;exitY=0.5;exitDx=0;exitDy=0;endArrow=none;endFill=0;" edge="1" parent="WIyWlLk6GJQsqaUBKTNV-1" source="C-ua_Iigtk_Ro6W7pgL2-161" target="C-ua_Iigtk_Ro6W7pgL2-24">
          <mxGeometry relative="1" as="geometry">
            <Array as="points">
              <mxPoint x="3220" y="2925" />
              <mxPoint x="3220" y="2925" />
            </Array>
          </mxGeometry>
        </mxCell>
        <mxCell id="C-ua_Iigtk_Ro6W7pgL2-161" value="&lt;font style=&quot;font-size: 31px;&quot;&gt;QnAWrite.jsp&lt;br&gt;&lt;/font&gt;" style="rounded=1;whiteSpace=wrap;html=1;" vertex="1" parent="WIyWlLk6GJQsqaUBKTNV-1">
          <mxGeometry x="2910" y="2890" width="250" height="70" as="geometry" />
        </mxCell>
        <mxCell id="C-ua_Iigtk_Ro6W7pgL2-173" style="edgeStyle=orthogonalEdgeStyle;rounded=0;orthogonalLoop=1;jettySize=auto;html=1;exitX=1;exitY=0.5;exitDx=0;exitDy=0;endArrow=none;endFill=0;" edge="1" parent="WIyWlLk6GJQsqaUBKTNV-1" source="C-ua_Iigtk_Ro6W7pgL2-162" target="C-ua_Iigtk_Ro6W7pgL2-163">
          <mxGeometry relative="1" as="geometry" />
        </mxCell>
        <mxCell id="C-ua_Iigtk_Ro6W7pgL2-162" value="&lt;font style=&quot;font-size: 31px;&quot;&gt;shardQnADetail.jsp&lt;br&gt;&lt;/font&gt;" style="rounded=1;whiteSpace=wrap;html=1;" vertex="1" parent="WIyWlLk6GJQsqaUBKTNV-1">
          <mxGeometry x="2840" y="2340" width="300" height="80" as="geometry" />
        </mxCell>
        <mxCell id="C-ua_Iigtk_Ro6W7pgL2-163" value="&lt;font style=&quot;font-size: 18px;&quot;&gt;QnAWriteServlet&lt;/font&gt;" style="swimlane;fontStyle=0;childLayout=stackLayout;horizontal=1;startSize=40;fillColor=none;horizontalStack=0;resizeParent=1;resizeParentMax=0;resizeLast=0;collapsible=1;marginBottom=0;whiteSpace=wrap;html=1;" vertex="1" parent="WIyWlLk6GJQsqaUBKTNV-1">
          <mxGeometry x="3250" y="2280" width="390" height="170" as="geometry" />
        </mxCell>
        <mxCell id="C-ua_Iigtk_Ro6W7pgL2-164" value="&lt;p data-pm-slice=&quot;1 1 [&amp;quot;tiptapChildEditor&amp;quot;,{&amp;quot;id&amp;quot;:&amp;quot;dc9b0feb-b4c9-43d0-a729-6b9075bb8845&amp;quot;,&amp;quot;shapeId&amp;quot;:&amp;quot;wDDD5ajjg7d&amp;quot;,&amp;quot;textId&amp;quot;:&amp;quot;functionSectionText&amp;quot;}]&quot;&gt;protected&lt;span style=&quot;color: rgb(217, 232, 247); font-size: 10pt; font-family: noto_regular&quot;&gt; &lt;/span&gt;&lt;span style=&quot;color: rgb(204, 108, 29); font-size: 10pt; font-family: noto_regular&quot;&gt;void&lt;/span&gt;&lt;span style=&quot;color: rgb(217, 232, 247); font-size: 10pt; font-family: noto_regular&quot;&gt; &lt;/span&gt;&lt;span style=&quot;color: rgb(30, 181, 64); font-size: 10pt; font-family: noto_regular&quot;&gt;doGet&lt;/span&gt;&lt;span style=&quot;color: rgb(249, 250, 244); font-size: 10pt; font-family: noto_regular&quot;&gt; &lt;/span&gt;&lt;span style=&quot;font-size: 10pt; font-family: noto_regular;&quot;&gt;(&lt;/span&gt;&lt;span style=&quot;color: rgb(128, 242, 246); font-size: 10pt; font-family: noto_regular&quot;&gt;HttpServletRequest&lt;/span&gt;&lt;span style=&quot;color: rgb(217, 232, 247); font-size: 10pt; font-family: noto_regular&quot;&gt; &lt;/span&gt;&lt;span style=&quot;color: rgb(121, 171, 255); font-size: 10pt; font-family: noto_regular&quot;&gt;request&lt;/span&gt;&lt;span style=&quot;color: rgb(230, 230, 250); font-size: 10pt; font-family: noto_regular&quot;&gt;,&lt;/span&gt;&lt;span style=&quot;color: rgb(217, 232, 247); font-size: 10pt; font-family: noto_regular&quot;&gt; &lt;/span&gt;&lt;span style=&quot;color: rgb(128, 242, 246); font-size: 10pt; font-family: noto_regular&quot;&gt;HttpServletResponse&lt;/span&gt;&lt;span style=&quot;color: rgb(217, 232, 247); font-size: 10pt; font-family: noto_regular&quot;&gt; &lt;/span&gt;&lt;span style=&quot;color: rgb(121, 171, 255); font-size: 10pt; font-family: noto_regular&quot;&gt;response&lt;/span&gt;&lt;span style=&quot;font-size: 10pt; font-family: noto_regular;&quot;&gt;)&lt;/span&gt;&lt;/p&gt;" style="text;strokeColor=none;fillColor=none;align=left;verticalAlign=top;spacingLeft=4;spacingRight=4;overflow=hidden;rotatable=0;points=[[0,0.5],[1,0.5]];portConstraint=eastwest;whiteSpace=wrap;html=1;" vertex="1" parent="C-ua_Iigtk_Ro6W7pgL2-163">
          <mxGeometry y="40" width="390" height="60" as="geometry" />
        </mxCell>
        <mxCell id="C-ua_Iigtk_Ro6W7pgL2-165" value="&lt;p data-pm-slice=&quot;1 1 [&amp;quot;tiptapChildEditor&amp;quot;,{&amp;quot;id&amp;quot;:&amp;quot;dc9b0feb-b4c9-43d0-a729-6b9075bb8845&amp;quot;,&amp;quot;shapeId&amp;quot;:&amp;quot;wDDD5ajjg7d&amp;quot;,&amp;quot;textId&amp;quot;:&amp;quot;functionSectionText&amp;quot;}]&quot;&gt;protected&lt;span style=&quot;color: rgb(217, 232, 247); font-size: 10pt; font-family: noto_regular&quot;&gt; &lt;/span&gt;&lt;span style=&quot;color: rgb(204, 108, 29); font-size: 10pt; font-family: noto_regular&quot;&gt;void&lt;/span&gt;&lt;span style=&quot;color: rgb(217, 232, 247); font-size: 10pt; font-family: noto_regular&quot;&gt; &lt;/span&gt;&lt;span style=&quot;color: rgb(30, 181, 64); font-size: 10pt; font-family: noto_regular&quot;&gt;doPost &lt;/span&gt;&lt;span style=&quot;font-size: 10pt; font-family: noto_regular;&quot;&gt;(&lt;/span&gt;&lt;span style=&quot;color: rgb(128, 242, 246); font-size: 10pt; font-family: noto_regular&quot;&gt;HttpServletRequest&lt;/span&gt;&lt;span style=&quot;color: rgb(217, 232, 247); font-size: 10pt; font-family: noto_regular&quot;&gt; &lt;/span&gt;&lt;span style=&quot;color: rgb(121, 171, 255); font-size: 10pt; font-family: noto_regular&quot;&gt;request&lt;/span&gt;&lt;span style=&quot;color: rgb(230, 230, 250); font-size: 10pt; font-family: noto_regular&quot;&gt;,&lt;/span&gt;&lt;span style=&quot;color: rgb(217, 232, 247); font-size: 10pt; font-family: noto_regular&quot;&gt; &lt;/span&gt;&lt;span style=&quot;color: rgb(128, 242, 246); font-size: 10pt; font-family: noto_regular&quot;&gt;HttpServletResponse&lt;/span&gt;&lt;span style=&quot;color: rgb(217, 232, 247); font-size: 10pt; font-family: noto_regular&quot;&gt; &lt;/span&gt;&lt;span style=&quot;color: rgb(121, 171, 255); font-size: 10pt; font-family: noto_regular&quot;&gt;response&lt;/span&gt;&lt;span style=&quot;font-size: 10pt; font-family: noto_regular;&quot;&gt;)&lt;/span&gt;&lt;/p&gt;" style="text;strokeColor=none;fillColor=none;align=left;verticalAlign=top;spacingLeft=4;spacingRight=4;overflow=hidden;rotatable=0;points=[[0,0.5],[1,0.5]];portConstraint=eastwest;whiteSpace=wrap;html=1;" vertex="1" parent="C-ua_Iigtk_Ro6W7pgL2-163">
          <mxGeometry y="100" width="390" height="70" as="geometry" />
        </mxCell>
        <mxCell id="C-ua_Iigtk_Ro6W7pgL2-188" style="edgeStyle=orthogonalEdgeStyle;rounded=0;orthogonalLoop=1;jettySize=auto;html=1;exitX=1;exitY=0.5;exitDx=0;exitDy=0;endArrow=none;endFill=0;dashed=1;" edge="1" parent="WIyWlLk6GJQsqaUBKTNV-1" source="C-ua_Iigtk_Ro6W7pgL2-187" target="C-ua_Iigtk_Ro6W7pgL2-149">
          <mxGeometry relative="1" as="geometry" />
        </mxCell>
        <mxCell id="C-ua_Iigtk_Ro6W7pgL2-187" value="&lt;div style=&quot;box-sizing: border-box; width: 100%; background: rgb(228, 228, 228); padding: 2px; font-size: 16px;&quot;&gt;&lt;p data-pm-slice=&quot;1 1 [&amp;quot;tiptapChildEditor&amp;quot;,{&amp;quot;id&amp;quot;:&amp;quot;97b59b13-443c-4179-be96-2f6b4b0085f6&amp;quot;,&amp;quot;shapeId&amp;quot;:&amp;quot;AZUDldcBAm2&amp;quot;,&amp;quot;textId&amp;quot;:&amp;quot;headertext&amp;quot;}]&quot; style=&quot;text-align: center&quot;&gt;CUSTOMER&lt;/p&gt;&lt;/div&gt;&lt;table style=&quot;width: 100%; font-size: 16px;&quot; cellpadding=&quot;2&quot; cellspacing=&quot;0&quot;&gt;&lt;tbody&gt;&lt;tr&gt;&lt;td&gt;&lt;p&gt;&lt;font style=&quot;font-size: 16px;&quot;&gt;REPLYNUM&lt;span style=&quot;white-space: pre;&quot;&gt;&amp;nbsp;&amp;nbsp;&amp;nbsp;&amp;nbsp;&lt;/span&gt;VARCHAR2(10 BYTE)&lt;/font&gt;&lt;/p&gt;&lt;p&gt;&lt;font style=&quot;font-size: 16px;&quot;&gt;REPLYTITLE&lt;span style=&quot;&quot;&gt;&lt;span style=&quot;white-space: pre;&quot;&gt;&amp;nbsp;&amp;nbsp;&amp;nbsp;&amp;nbsp;&lt;/span&gt;&lt;/span&gt;VARCHAR2(50 BYTE)&lt;/font&gt;&lt;/p&gt;&lt;p&gt;&lt;font style=&quot;font-size: 16px;&quot;&gt;REPLYCONTENT&lt;span style=&quot;&quot;&gt;&lt;span style=&quot;white-space: pre;&quot;&gt;&amp;nbsp;&amp;nbsp;&amp;nbsp;&amp;nbsp;&lt;/span&gt;&lt;/span&gt;VARCHAR2(1500 BYTE)&lt;/font&gt;&lt;/p&gt;&lt;p&gt;&lt;font style=&quot;font-size: 16px;&quot;&gt;REPLYIMG&lt;span style=&quot;&quot;&gt;&lt;span style=&quot;white-space: pre;&quot;&gt;&amp;nbsp;&amp;nbsp;&amp;nbsp;&amp;nbsp;&lt;/span&gt;&lt;/span&gt;VARCHAR2(600 BYTE)&lt;/font&gt;&lt;/p&gt;&lt;p&gt;&lt;font style=&quot;font-size: 16px;&quot;&gt;REPLYPUBLIC&lt;span style=&quot;&quot;&gt;&lt;span style=&quot;white-space: pre;&quot;&gt;&amp;nbsp;&amp;nbsp;&amp;nbsp;&amp;nbsp;&lt;/span&gt;&lt;/span&gt;NUMBER(1,0)&lt;/font&gt;&lt;/p&gt;&lt;p&gt;&lt;font style=&quot;font-size: 16px;&quot;&gt;REPLYREGDATE&lt;span style=&quot;&quot;&gt;&lt;span style=&quot;white-space: pre;&quot;&gt;&amp;nbsp;&amp;nbsp;&amp;nbsp;&amp;nbsp;&lt;/span&gt;&lt;/span&gt;DATE&lt;/font&gt;&lt;/p&gt;&lt;p&gt;&lt;font style=&quot;font-size: 16px;&quot;&gt;REPLYCOMPLETE&lt;span style=&quot;&quot;&gt;&lt;span style=&quot;white-space: pre;&quot;&gt;&amp;nbsp;&amp;nbsp;&amp;nbsp;&amp;nbsp;&lt;/span&gt;&lt;/span&gt;NUMBER(1,0)&lt;/font&gt;&lt;/p&gt;&lt;p&gt;&lt;font style=&quot;font-size: 16px;&quot;&gt;USERID&lt;span style=&quot;white-space: pre;&quot;&gt;&amp;nbsp;&amp;nbsp;&amp;nbsp;&amp;nbsp;&lt;/span&gt;VARCHAR2(15 BYTE)&lt;/font&gt;&lt;/p&gt;&lt;/td&gt;&lt;td&gt;&lt;br&gt;&lt;/td&gt;&lt;/tr&gt;&lt;/tbody&gt;&lt;/table&gt;" style="verticalAlign=top;align=left;overflow=fill;html=1;whiteSpace=wrap;" vertex="1" parent="WIyWlLk6GJQsqaUBKTNV-1">
          <mxGeometry x="2200" y="2396" width="490" height="510" as="geometry" />
        </mxCell>
        <mxCell id="C-ua_Iigtk_Ro6W7pgL2-195" style="edgeStyle=orthogonalEdgeStyle;rounded=0;orthogonalLoop=1;jettySize=auto;html=1;exitX=0.75;exitY=0;exitDx=0;exitDy=0;endArrow=none;endFill=0;" edge="1" parent="WIyWlLk6GJQsqaUBKTNV-1" source="C-ua_Iigtk_Ro6W7pgL2-192" target="C-ua_Iigtk_Ro6W7pgL2-70">
          <mxGeometry relative="1" as="geometry">
            <Array as="points">
              <mxPoint x="3542" y="3050" />
              <mxPoint x="3810" y="3050" />
            </Array>
          </mxGeometry>
        </mxCell>
        <mxCell id="C-ua_Iigtk_Ro6W7pgL2-196" style="edgeStyle=orthogonalEdgeStyle;rounded=0;orthogonalLoop=1;jettySize=auto;html=1;exitX=0;exitY=0.176;exitDx=0;exitDy=0;exitPerimeter=0;endArrow=none;endFill=0;" edge="1" parent="WIyWlLk6GJQsqaUBKTNV-1" source="C-ua_Iigtk_Ro6W7pgL2-192" target="C-ua_Iigtk_Ro6W7pgL2-149">
          <mxGeometry relative="1" as="geometry">
            <Array as="points">
              <mxPoint x="3250" y="3215" />
              <mxPoint x="2880" y="3215" />
            </Array>
          </mxGeometry>
        </mxCell>
        <mxCell id="C-ua_Iigtk_Ro6W7pgL2-192" value="&lt;font style=&quot;font-size: 18px;&quot;&gt;QnAEnswerServlet&lt;/font&gt;" style="swimlane;fontStyle=0;childLayout=stackLayout;horizontal=1;startSize=40;fillColor=none;horizontalStack=0;resizeParent=1;resizeParentMax=0;resizeLast=0;collapsible=1;marginBottom=0;whiteSpace=wrap;html=1;" vertex="1" parent="WIyWlLk6GJQsqaUBKTNV-1">
          <mxGeometry x="3250" y="3130" width="390" height="170" as="geometry" />
        </mxCell>
        <mxCell id="C-ua_Iigtk_Ro6W7pgL2-193" value="&lt;p data-pm-slice=&quot;1 1 [&amp;quot;tiptapChildEditor&amp;quot;,{&amp;quot;id&amp;quot;:&amp;quot;dc9b0feb-b4c9-43d0-a729-6b9075bb8845&amp;quot;,&amp;quot;shapeId&amp;quot;:&amp;quot;wDDD5ajjg7d&amp;quot;,&amp;quot;textId&amp;quot;:&amp;quot;functionSectionText&amp;quot;}]&quot;&gt;protected&lt;span style=&quot;color: rgb(217, 232, 247); font-size: 10pt; font-family: noto_regular&quot;&gt; &lt;/span&gt;&lt;span style=&quot;color: rgb(204, 108, 29); font-size: 10pt; font-family: noto_regular&quot;&gt;void&lt;/span&gt;&lt;span style=&quot;color: rgb(217, 232, 247); font-size: 10pt; font-family: noto_regular&quot;&gt; &lt;/span&gt;&lt;span style=&quot;color: rgb(30, 181, 64); font-size: 10pt; font-family: noto_regular&quot;&gt;doGet&lt;/span&gt;&lt;span style=&quot;color: rgb(249, 250, 244); font-size: 10pt; font-family: noto_regular&quot;&gt; &lt;/span&gt;&lt;span style=&quot;font-size: 10pt; font-family: noto_regular;&quot;&gt;(&lt;/span&gt;&lt;span style=&quot;color: rgb(128, 242, 246); font-size: 10pt; font-family: noto_regular&quot;&gt;HttpServletRequest&lt;/span&gt;&lt;span style=&quot;color: rgb(217, 232, 247); font-size: 10pt; font-family: noto_regular&quot;&gt; &lt;/span&gt;&lt;span style=&quot;color: rgb(121, 171, 255); font-size: 10pt; font-family: noto_regular&quot;&gt;request&lt;/span&gt;&lt;span style=&quot;color: rgb(230, 230, 250); font-size: 10pt; font-family: noto_regular&quot;&gt;,&lt;/span&gt;&lt;span style=&quot;color: rgb(217, 232, 247); font-size: 10pt; font-family: noto_regular&quot;&gt; &lt;/span&gt;&lt;span style=&quot;color: rgb(128, 242, 246); font-size: 10pt; font-family: noto_regular&quot;&gt;HttpServletResponse&lt;/span&gt;&lt;span style=&quot;color: rgb(217, 232, 247); font-size: 10pt; font-family: noto_regular&quot;&gt; &lt;/span&gt;&lt;span style=&quot;color: rgb(121, 171, 255); font-size: 10pt; font-family: noto_regular&quot;&gt;response&lt;/span&gt;&lt;span style=&quot;font-size: 10pt; font-family: noto_regular;&quot;&gt;)&lt;/span&gt;&lt;/p&gt;" style="text;strokeColor=none;fillColor=none;align=left;verticalAlign=top;spacingLeft=4;spacingRight=4;overflow=hidden;rotatable=0;points=[[0,0.5],[1,0.5]];portConstraint=eastwest;whiteSpace=wrap;html=1;" vertex="1" parent="C-ua_Iigtk_Ro6W7pgL2-192">
          <mxGeometry y="40" width="390" height="60" as="geometry" />
        </mxCell>
        <mxCell id="C-ua_Iigtk_Ro6W7pgL2-194" value="&lt;p data-pm-slice=&quot;1 1 [&amp;quot;tiptapChildEditor&amp;quot;,{&amp;quot;id&amp;quot;:&amp;quot;dc9b0feb-b4c9-43d0-a729-6b9075bb8845&amp;quot;,&amp;quot;shapeId&amp;quot;:&amp;quot;wDDD5ajjg7d&amp;quot;,&amp;quot;textId&amp;quot;:&amp;quot;functionSectionText&amp;quot;}]&quot;&gt;protected&lt;span style=&quot;color: rgb(217, 232, 247); font-size: 10pt; font-family: noto_regular&quot;&gt; &lt;/span&gt;&lt;span style=&quot;color: rgb(204, 108, 29); font-size: 10pt; font-family: noto_regular&quot;&gt;void&lt;/span&gt;&lt;span style=&quot;color: rgb(217, 232, 247); font-size: 10pt; font-family: noto_regular&quot;&gt; &lt;/span&gt;&lt;span style=&quot;color: rgb(30, 181, 64); font-size: 10pt; font-family: noto_regular&quot;&gt;doPost &lt;/span&gt;&lt;span style=&quot;font-size: 10pt; font-family: noto_regular;&quot;&gt;(&lt;/span&gt;&lt;span style=&quot;color: rgb(128, 242, 246); font-size: 10pt; font-family: noto_regular&quot;&gt;HttpServletRequest&lt;/span&gt;&lt;span style=&quot;color: rgb(217, 232, 247); font-size: 10pt; font-family: noto_regular&quot;&gt; &lt;/span&gt;&lt;span style=&quot;color: rgb(121, 171, 255); font-size: 10pt; font-family: noto_regular&quot;&gt;request&lt;/span&gt;&lt;span style=&quot;color: rgb(230, 230, 250); font-size: 10pt; font-family: noto_regular&quot;&gt;,&lt;/span&gt;&lt;span style=&quot;color: rgb(217, 232, 247); font-size: 10pt; font-family: noto_regular&quot;&gt; &lt;/span&gt;&lt;span style=&quot;color: rgb(128, 242, 246); font-size: 10pt; font-family: noto_regular&quot;&gt;HttpServletResponse&lt;/span&gt;&lt;span style=&quot;color: rgb(217, 232, 247); font-size: 10pt; font-family: noto_regular&quot;&gt; &lt;/span&gt;&lt;span style=&quot;color: rgb(121, 171, 255); font-size: 10pt; font-family: noto_regular&quot;&gt;response&lt;/span&gt;&lt;span style=&quot;font-size: 10pt; font-family: noto_regular;&quot;&gt;)&lt;/span&gt;&lt;/p&gt;" style="text;strokeColor=none;fillColor=none;align=left;verticalAlign=top;spacingLeft=4;spacingRight=4;overflow=hidden;rotatable=0;points=[[0,0.5],[1,0.5]];portConstraint=eastwest;whiteSpace=wrap;html=1;" vertex="1" parent="C-ua_Iigtk_Ro6W7pgL2-192">
          <mxGeometry y="100" width="390" height="70" as="geometry" />
        </mxCell>
        <mxCell id="C-ua_Iigtk_Ro6W7pgL2-197" value="UserVo" style="swimlane;fontStyle=0;childLayout=stackLayout;horizontal=1;startSize=26;fillColor=none;horizontalStack=0;resizeParent=1;resizeParentMax=0;resizeLast=0;collapsible=1;marginBottom=0;whiteSpace=wrap;html=1;" vertex="1" parent="WIyWlLk6GJQsqaUBKTNV-1">
          <mxGeometry x="2700" y="1680" width="210" height="364" as="geometry" />
        </mxCell>
        <mxCell id="C-ua_Iigtk_Ro6W7pgL2-198" value="- userId: String" style="text;strokeColor=none;fillColor=none;align=left;verticalAlign=top;spacingLeft=4;spacingRight=4;overflow=hidden;rotatable=0;points=[[0,0.5],[1,0.5]];portConstraint=eastwest;whiteSpace=wrap;html=1;" vertex="1" parent="C-ua_Iigtk_Ro6W7pgL2-197">
          <mxGeometry y="26" width="210" height="26" as="geometry" />
        </mxCell>
        <mxCell id="C-ua_Iigtk_Ro6W7pgL2-199" value="- userPwd : String" style="text;strokeColor=none;fillColor=none;align=left;verticalAlign=top;spacingLeft=4;spacingRight=4;overflow=hidden;rotatable=0;points=[[0,0.5],[1,0.5]];portConstraint=eastwest;whiteSpace=wrap;html=1;" vertex="1" parent="C-ua_Iigtk_Ro6W7pgL2-197">
          <mxGeometry y="52" width="210" height="26" as="geometry" />
        </mxCell>
        <mxCell id="C-ua_Iigtk_Ro6W7pgL2-205" value="- userName : String" style="text;strokeColor=none;fillColor=none;align=left;verticalAlign=top;spacingLeft=4;spacingRight=4;overflow=hidden;rotatable=0;points=[[0,0.5],[1,0.5]];portConstraint=eastwest;whiteSpace=wrap;html=1;" vertex="1" parent="C-ua_Iigtk_Ro6W7pgL2-197">
          <mxGeometry y="78" width="210" height="26" as="geometry" />
        </mxCell>
        <mxCell id="C-ua_Iigtk_Ro6W7pgL2-204" value="- Email : String" style="text;strokeColor=none;fillColor=none;align=left;verticalAlign=top;spacingLeft=4;spacingRight=4;overflow=hidden;rotatable=0;points=[[0,0.5],[1,0.5]];portConstraint=eastwest;whiteSpace=wrap;html=1;" vertex="1" parent="C-ua_Iigtk_Ro6W7pgL2-197">
          <mxGeometry y="104" width="210" height="26" as="geometry" />
        </mxCell>
        <mxCell id="C-ua_Iigtk_Ro6W7pgL2-203" value="-&amp;nbsp;Phone : String" style="text;strokeColor=none;fillColor=none;align=left;verticalAlign=top;spacingLeft=4;spacingRight=4;overflow=hidden;rotatable=0;points=[[0,0.5],[1,0.5]];portConstraint=eastwest;whiteSpace=wrap;html=1;" vertex="1" parent="C-ua_Iigtk_Ro6W7pgL2-197">
          <mxGeometry y="130" width="210" height="26" as="geometry" />
        </mxCell>
        <mxCell id="C-ua_Iigtk_Ro6W7pgL2-202" value="-&amp;nbsp;Address : String" style="text;strokeColor=none;fillColor=none;align=left;verticalAlign=top;spacingLeft=4;spacingRight=4;overflow=hidden;rotatable=0;points=[[0,0.5],[1,0.5]];portConstraint=eastwest;whiteSpace=wrap;html=1;" vertex="1" parent="C-ua_Iigtk_Ro6W7pgL2-197">
          <mxGeometry y="156" width="210" height="26" as="geometry" />
        </mxCell>
        <mxCell id="C-ua_Iigtk_Ro6W7pgL2-200" value="-&amp;nbsp;Gender : int" style="text;strokeColor=none;fillColor=none;align=left;verticalAlign=top;spacingLeft=4;spacingRight=4;overflow=hidden;rotatable=0;points=[[0,0.5],[1,0.5]];portConstraint=eastwest;whiteSpace=wrap;html=1;" vertex="1" parent="C-ua_Iigtk_Ro6W7pgL2-197">
          <mxGeometry y="182" width="210" height="26" as="geometry" />
        </mxCell>
        <mxCell id="C-ua_Iigtk_Ro6W7pgL2-206" value="- Bob : String" style="text;strokeColor=none;fillColor=none;align=left;verticalAlign=top;spacingLeft=4;spacingRight=4;overflow=hidden;rotatable=0;points=[[0,0.5],[1,0.5]];portConstraint=eastwest;whiteSpace=wrap;html=1;" vertex="1" parent="C-ua_Iigtk_Ro6W7pgL2-197">
          <mxGeometry y="208" width="210" height="26" as="geometry" />
        </mxCell>
        <mxCell id="C-ua_Iigtk_Ro6W7pgL2-207" value="- Secession : int" style="text;strokeColor=none;fillColor=none;align=left;verticalAlign=top;spacingLeft=4;spacingRight=4;overflow=hidden;rotatable=0;points=[[0,0.5],[1,0.5]];portConstraint=eastwest;whiteSpace=wrap;html=1;" vertex="1" parent="C-ua_Iigtk_Ro6W7pgL2-197">
          <mxGeometry y="234" width="210" height="26" as="geometry" />
        </mxCell>
        <mxCell id="C-ua_Iigtk_Ro6W7pgL2-208" value="- Point : int" style="text;strokeColor=none;fillColor=none;align=left;verticalAlign=top;spacingLeft=4;spacingRight=4;overflow=hidden;rotatable=0;points=[[0,0.5],[1,0.5]];portConstraint=eastwest;whiteSpace=wrap;html=1;" vertex="1" parent="C-ua_Iigtk_Ro6W7pgL2-197">
          <mxGeometry y="260" width="210" height="26" as="geometry" />
        </mxCell>
        <mxCell id="C-ua_Iigtk_Ro6W7pgL2-210" value="- MemNum : int" style="text;strokeColor=none;fillColor=none;align=left;verticalAlign=top;spacingLeft=4;spacingRight=4;overflow=hidden;rotatable=0;points=[[0,0.5],[1,0.5]];portConstraint=eastwest;whiteSpace=wrap;html=1;" vertex="1" parent="C-ua_Iigtk_Ro6W7pgL2-197">
          <mxGeometry y="286" width="210" height="26" as="geometry" />
        </mxCell>
        <mxCell id="C-ua_Iigtk_Ro6W7pgL2-209" value="- UserAddr : String" style="text;strokeColor=none;fillColor=none;align=left;verticalAlign=top;spacingLeft=4;spacingRight=4;overflow=hidden;rotatable=0;points=[[0,0.5],[1,0.5]];portConstraint=eastwest;whiteSpace=wrap;html=1;" vertex="1" parent="C-ua_Iigtk_Ro6W7pgL2-197">
          <mxGeometry y="312" width="210" height="26" as="geometry" />
        </mxCell>
        <mxCell id="C-ua_Iigtk_Ro6W7pgL2-211" value="- AuchCode : String" style="text;strokeColor=none;fillColor=none;align=left;verticalAlign=top;spacingLeft=4;spacingRight=4;overflow=hidden;rotatable=0;points=[[0,0.5],[1,0.5]];portConstraint=eastwest;whiteSpace=wrap;html=1;" vertex="1" parent="C-ua_Iigtk_Ro6W7pgL2-197">
          <mxGeometry y="338" width="210" height="26" as="geometry" />
        </mxCell>
        <mxCell id="C-ua_Iigtk_Ro6W7pgL2-212" value="QnAReplyVO" style="swimlane;fontStyle=0;childLayout=stackLayout;horizontal=1;startSize=26;fillColor=none;horizontalStack=0;resizeParent=1;resizeParentMax=0;resizeLast=0;collapsible=1;marginBottom=0;whiteSpace=wrap;html=1;" vertex="1" parent="WIyWlLk6GJQsqaUBKTNV-1">
          <mxGeometry x="2940" y="1680" width="210" height="234" as="geometry" />
        </mxCell>
        <mxCell id="C-ua_Iigtk_Ro6W7pgL2-213" value="- replyNum : int" style="text;strokeColor=none;fillColor=none;align=left;verticalAlign=top;spacingLeft=4;spacingRight=4;overflow=hidden;rotatable=0;points=[[0,0.5],[1,0.5]];portConstraint=eastwest;whiteSpace=wrap;html=1;" vertex="1" parent="C-ua_Iigtk_Ro6W7pgL2-212">
          <mxGeometry y="26" width="210" height="26" as="geometry" />
        </mxCell>
        <mxCell id="C-ua_Iigtk_Ro6W7pgL2-214" value="- replyTitle : String" style="text;strokeColor=none;fillColor=none;align=left;verticalAlign=top;spacingLeft=4;spacingRight=4;overflow=hidden;rotatable=0;points=[[0,0.5],[1,0.5]];portConstraint=eastwest;whiteSpace=wrap;html=1;" vertex="1" parent="C-ua_Iigtk_Ro6W7pgL2-212">
          <mxGeometry y="52" width="210" height="26" as="geometry" />
        </mxCell>
        <mxCell id="C-ua_Iigtk_Ro6W7pgL2-215" value="- replyContent : String" style="text;strokeColor=none;fillColor=none;align=left;verticalAlign=top;spacingLeft=4;spacingRight=4;overflow=hidden;rotatable=0;points=[[0,0.5],[1,0.5]];portConstraint=eastwest;whiteSpace=wrap;html=1;" vertex="1" parent="C-ua_Iigtk_Ro6W7pgL2-212">
          <mxGeometry y="78" width="210" height="26" as="geometry" />
        </mxCell>
        <mxCell id="C-ua_Iigtk_Ro6W7pgL2-216" value="- replyImg : String" style="text;strokeColor=none;fillColor=none;align=left;verticalAlign=top;spacingLeft=4;spacingRight=4;overflow=hidden;rotatable=0;points=[[0,0.5],[1,0.5]];portConstraint=eastwest;whiteSpace=wrap;html=1;" vertex="1" parent="C-ua_Iigtk_Ro6W7pgL2-212">
          <mxGeometry y="104" width="210" height="26" as="geometry" />
        </mxCell>
        <mxCell id="C-ua_Iigtk_Ro6W7pgL2-217" value="- replyPublic : int" style="text;strokeColor=none;fillColor=none;align=left;verticalAlign=top;spacingLeft=4;spacingRight=4;overflow=hidden;rotatable=0;points=[[0,0.5],[1,0.5]];portConstraint=eastwest;whiteSpace=wrap;html=1;" vertex="1" parent="C-ua_Iigtk_Ro6W7pgL2-212">
          <mxGeometry y="130" width="210" height="26" as="geometry" />
        </mxCell>
        <mxCell id="C-ua_Iigtk_Ro6W7pgL2-218" value="- replyRegdate : String" style="text;strokeColor=none;fillColor=none;align=left;verticalAlign=top;spacingLeft=4;spacingRight=4;overflow=hidden;rotatable=0;points=[[0,0.5],[1,0.5]];portConstraint=eastwest;whiteSpace=wrap;html=1;" vertex="1" parent="C-ua_Iigtk_Ro6W7pgL2-212">
          <mxGeometry y="156" width="210" height="26" as="geometry" />
        </mxCell>
        <mxCell id="C-ua_Iigtk_Ro6W7pgL2-219" value="- replyComplete : int" style="text;strokeColor=none;fillColor=none;align=left;verticalAlign=top;spacingLeft=4;spacingRight=4;overflow=hidden;rotatable=0;points=[[0,0.5],[1,0.5]];portConstraint=eastwest;whiteSpace=wrap;html=1;" vertex="1" parent="C-ua_Iigtk_Ro6W7pgL2-212">
          <mxGeometry y="182" width="210" height="26" as="geometry" />
        </mxCell>
        <mxCell id="C-ua_Iigtk_Ro6W7pgL2-220" value="- userId: String" style="text;strokeColor=none;fillColor=none;align=left;verticalAlign=top;spacingLeft=4;spacingRight=4;overflow=hidden;rotatable=0;points=[[0,0.5],[1,0.5]];portConstraint=eastwest;whiteSpace=wrap;html=1;" vertex="1" parent="C-ua_Iigtk_Ro6W7pgL2-212">
          <mxGeometry y="208" width="210" height="26" as="geometry" />
        </mxCell>
        <mxCell id="C-ua_Iigtk_Ro6W7pgL2-226" value="QnAEnswer" style="swimlane;fontStyle=0;childLayout=stackLayout;horizontal=1;startSize=26;fillColor=none;horizontalStack=0;resizeParent=1;resizeParentMax=0;resizeLast=0;collapsible=1;marginBottom=0;whiteSpace=wrap;html=1;" vertex="1" parent="WIyWlLk6GJQsqaUBKTNV-1">
          <mxGeometry x="3180" y="1680" width="210" height="130" as="geometry" />
        </mxCell>
        <mxCell id="C-ua_Iigtk_Ro6W7pgL2-227" value="- replyNum : int" style="text;strokeColor=none;fillColor=none;align=left;verticalAlign=top;spacingLeft=4;spacingRight=4;overflow=hidden;rotatable=0;points=[[0,0.5],[1,0.5]];portConstraint=eastwest;whiteSpace=wrap;html=1;" vertex="1" parent="C-ua_Iigtk_Ro6W7pgL2-226">
          <mxGeometry y="26" width="210" height="26" as="geometry" />
        </mxCell>
        <mxCell id="C-ua_Iigtk_Ro6W7pgL2-228" value="- enswerNum : int" style="text;strokeColor=none;fillColor=none;align=left;verticalAlign=top;spacingLeft=4;spacingRight=4;overflow=hidden;rotatable=0;points=[[0,0.5],[1,0.5]];portConstraint=eastwest;whiteSpace=wrap;html=1;" vertex="1" parent="C-ua_Iigtk_Ro6W7pgL2-226">
          <mxGeometry y="52" width="210" height="26" as="geometry" />
        </mxCell>
        <mxCell id="C-ua_Iigtk_Ro6W7pgL2-229" value="- enswerContent : String" style="text;strokeColor=none;fillColor=none;align=left;verticalAlign=top;spacingLeft=4;spacingRight=4;overflow=hidden;rotatable=0;points=[[0,0.5],[1,0.5]];portConstraint=eastwest;whiteSpace=wrap;html=1;" vertex="1" parent="C-ua_Iigtk_Ro6W7pgL2-226">
          <mxGeometry y="78" width="210" height="26" as="geometry" />
        </mxCell>
        <mxCell id="C-ua_Iigtk_Ro6W7pgL2-230" value="- enswerRegdate : String" style="text;strokeColor=none;fillColor=none;align=left;verticalAlign=top;spacingLeft=4;spacingRight=4;overflow=hidden;rotatable=0;points=[[0,0.5],[1,0.5]];portConstraint=eastwest;whiteSpace=wrap;html=1;" vertex="1" parent="C-ua_Iigtk_Ro6W7pgL2-226">
          <mxGeometry y="104" width="210" height="26" as="geometry" />
        </mxCell>
        <mxCell id="C-ua_Iigtk_Ro6W7pgL2-240" value="Membership" style="swimlane;fontStyle=0;childLayout=stackLayout;horizontal=1;startSize=26;fillColor=none;horizontalStack=0;resizeParent=1;resizeParentMax=0;resizeLast=0;collapsible=1;marginBottom=0;whiteSpace=wrap;html=1;" vertex="1" parent="WIyWlLk6GJQsqaUBKTNV-1">
          <mxGeometry x="3410" y="1680" width="210" height="104" as="geometry" />
        </mxCell>
        <mxCell id="C-ua_Iigtk_Ro6W7pgL2-241" value="- memNum : int" style="text;strokeColor=none;fillColor=none;align=left;verticalAlign=top;spacingLeft=4;spacingRight=4;overflow=hidden;rotatable=0;points=[[0,0.5],[1,0.5]];portConstraint=eastwest;whiteSpace=wrap;html=1;" vertex="1" parent="C-ua_Iigtk_Ro6W7pgL2-240">
          <mxGeometry y="26" width="210" height="26" as="geometry" />
        </mxCell>
        <mxCell id="C-ua_Iigtk_Ro6W7pgL2-242" value="&lt;div&gt;- pointRate : int&lt;/div&gt;&lt;div&gt;&lt;br&gt;&lt;/div&gt;" style="text;strokeColor=none;fillColor=none;align=left;verticalAlign=top;spacingLeft=4;spacingRight=4;overflow=hidden;rotatable=0;points=[[0,0.5],[1,0.5]];portConstraint=eastwest;whiteSpace=wrap;html=1;" vertex="1" parent="C-ua_Iigtk_Ro6W7pgL2-240">
          <mxGeometry y="52" width="210" height="26" as="geometry" />
        </mxCell>
        <mxCell id="C-ua_Iigtk_Ro6W7pgL2-243" value="- membershipName : String" style="text;strokeColor=none;fillColor=none;align=left;verticalAlign=top;spacingLeft=4;spacingRight=4;overflow=hidden;rotatable=0;points=[[0,0.5],[1,0.5]];portConstraint=eastwest;whiteSpace=wrap;html=1;" vertex="1" parent="C-ua_Iigtk_Ro6W7pgL2-240">
          <mxGeometry y="78" width="210" height="26" as="geometry" />
        </mxCell>
      </root>
    </mxGraphModel>
  </diagram>
</mxfile>
